Geologisk-LightItalic.ufo
<glyph name="percent" format="2">
  <advance width="2044"/>
  <unicode hex="0025"/>
  <outline>
    <contour>
      <point x="560" y="-30" type="line"/>
      <point x="1644" y="1382" type="line"/>
      <point x="1582" y="1430" type="line"/>
      <point x="494" y="20" type="line"/>
    </contour>
    <contour>
      <point x="552" y="710" type="curve" smooth="yes"/>
      <point x="762" y="710"/>
      <point x="958" y="886"/>
      <point x="958" y="1102" type="curve" smooth="yes"/>
      <point x="958" y="1278"/>
      <point x="822" y="1420"/>
      <point x="632" y="1420" type="curve" smooth="yes"/>
      <point x="420" y="1420"/>
      <point x="224" y="1244"/>
      <point x="224" y="1030" type="curve" smooth="yes"/>
      <point x="224" y="852"/>
      <point x="362" y="710"/>
    </contour>
    <contour>
      <point x="568" y="806" type="curve" smooth="yes"/>
      <point x="418" y="806"/>
      <point x="324" y="898"/>
      <point x="324" y="1034" type="curve" smooth="yes"/>
      <point x="324" y="1202"/>
      <point x="450" y="1324"/>
      <point x="614" y="1324" type="curve" smooth="yes"/>
      <point x="764" y="1324"/>
      <point x="858" y="1236"/>
      <point x="858" y="1102" type="curve" smooth="yes"/>
      <point x="858" y="940"/>
      <point x="742" y="806"/>
    </contour>
    <contour>
      <point x="1508" y="-20" type="curve" smooth="yes"/>
      <point x="1718" y="-20"/>
      <point x="1914" y="156"/>
      <point x="1914" y="372" type="curve" smooth="yes"/>
      <point x="1914" y="548"/>
      <point x="1778" y="690"/>
      <point x="1588" y="690" type="curve" smooth="yes"/>
      <point x="1376" y="690"/>
      <point x="1180" y="514"/>
      <point x="1180" y="300" type="curve" smooth="yes"/>
      <point x="1180" y="122"/>
      <point x="1318" y="-20"/>
    </contour>
    <contour>
      <point x="1526" y="76" type="curve" smooth="yes"/>
      <point x="1376" y="76"/>
      <point x="1280" y="170"/>
      <point x="1280" y="304" type="curve" smooth="yes"/>
      <point x="1280" y="462"/>
      <point x="1402" y="594"/>
      <point x="1572" y="594" type="curve" smooth="yes"/>
      <point x="1722" y="594"/>
      <point x="1814" y="508"/>
      <point x="1814" y="374" type="curve" smooth="yes"/>
      <point x="1814" y="204"/>
      <point x="1694" y="76"/>
    </contour>
  </outline>
</glyph>
<glyph name="quotesingle" format="2">
  <advance width="420"/>
  <unicode hex="0027"/>
  <outline>
    <contour>
      <point x="275" y="992" type="line"/>
      <point x="365" y="992" type="line"/>
      <point x="461" y="1400" type="line"/>
      <point x="351" y="1400" type="line"/>
    </contour>
  </outline>
</glyph>
<glyph name="plus" format="2">
  <advance width="1298"/>
  <unicode hex="002B"/>
  <outline>
    <contour>
      <point x="544" y="220" type="line"/>
      <point x="644" y="220" type="line"/>
      <point x="728" y="616" type="line"/>
      <point x="1146" y="616" type="line"/>
      <point x="1166" y="712" type="line"/>
      <point x="748" y="712" type="line"/>
      <point x="832" y="1108" type="line"/>
      <point x="732" y="1108" type="line"/>
      <point x="648" y="712" type="line"/>
      <point x="230" y="712" type="line"/>
      <point x="210" y="616" type="line"/>
      <point x="628" y="616" type="line"/>
    </contour>
  </outline>
</glyph>
<glyph name="slash" format="2">
  <advance width="882"/>
  <unicode hex="002F"/>
  <guideline x="546" y="1316" angle="327.88009999999997"/>
  <guideline x="66" y="372" angle="327.88009999999997"/>
  <outline>
    <contour>
      <point x="-28" y="-230" type="line"/>
      <point x="1092" y="1554" type="line"/>
      <point x="1004" y="1610" type="line"/>
      <point x="-118" y="-178" type="line"/>
    </contour>
  </outline>
</glyph>
<glyph name="one" format="2">
  <advance width="812"/>
  <unicode hex="0031"/>
  <guideline x="116" y="567" angle="108.9046"/>
  <outline>
    <contour>
      <point x="398" y="0" type="line"/>
      <point x="510" y="0" type="line"/>
      <point x="814" y="1430" type="line"/>
      <point x="804" y="1430" type="line"/>
      <point x="202" y="1220" type="line"/>
      <point x="232" y="1134" type="line"/>
      <point x="670" y="1284" type="line"/>
    </contour>
  </outline>
</glyph>
<glyph name="two" format="2">
  <advance width="1168"/>
  <unicode hex="0032"/>
  <outline>
    <contour>
      <point x="38" y="0" type="line"/>
      <point x="936" y="0" type="line"/>
      <point x="958" y="108" type="line"/>
      <point x="216" y="108" type="line"/>
      <point x="580" y="380" type="line" smooth="yes"/>
      <point x="886" y="610"/>
      <point x="1110" y="810"/>
      <point x="1110" y="1074" type="curve" smooth="yes"/>
      <point x="1110" y="1294"/>
      <point x="940" y="1430"/>
      <point x="674" y="1430" type="curve" smooth="yes"/>
      <point x="542" y="1430"/>
      <point x="424" y="1398"/>
      <point x="324" y="1330" type="curve"/>
      <point x="358" y="1240" type="line"/>
      <point x="432" y="1294"/>
      <point x="540" y="1322"/>
      <point x="646" y="1322" type="curve" smooth="yes"/>
      <point x="866" y="1322"/>
      <point x="994" y="1222"/>
      <point x="994" y="1064" type="curve" smooth="yes"/>
      <point x="994" y="826"/>
      <point x="734" y="622"/>
      <point x="446" y="400" type="curve" smooth="yes"/>
      <point x="60" y="102" type="line"/>
    </contour>
  </outline>
</glyph>
<glyph name="six" format="2">
  <advance width="1268"/>
  <unicode hex="0036"/>
  <guideline x="181" y="417" angle="0"/>
  <outline>
    <contour>
      <point x="604" y="-30" type="curve" smooth="yes"/>
      <point x="898" y="-30"/>
      <point x="1150" y="202"/>
      <point x="1150" y="482" type="curve" smooth="yes"/>
      <point x="1150" y="712"/>
      <point x="960" y="880"/>
      <point x="694" y="880" type="curve" smooth="yes"/>
      <point x="534" y="880"/>
      <point x="394" y="814"/>
      <point x="290" y="696" type="curve"/>
      <point x="402" y="1002"/>
      <point x="706" y="1278"/>
      <point x="1198" y="1330" type="curve"/>
      <point x="1176" y="1430" type="line"/>
      <point x="614" y="1366"/>
      <point x="118" y="974"/>
      <point x="118" y="440" type="curve" smooth="yes"/>
      <point x="118" y="144"/>
      <point x="312" y="-30"/>
    </contour>
    <contour>
      <point x="614" y="84" type="curve" smooth="yes"/>
      <point x="388" y="84"/>
      <point x="246" y="214"/>
      <point x="246" y="394" type="curve" smooth="yes"/>
      <point x="246" y="614"/>
      <point x="436" y="778"/>
      <point x="660" y="778" type="curve" smooth="yes"/>
      <point x="872" y="778"/>
      <point x="1022" y="638"/>
      <point x="1022" y="458" type="curve" smooth="yes"/>
      <point x="1022" y="252"/>
      <point x="844" y="84"/>
    </contour>
  </outline>
</glyph>
<glyph name="nine" format="2">
  <advance width="1241"/>
  <unicode hex="0039"/>
  <outline>
    <contour>
      <point x="190" y="-30" type="line"/>
      <point x="730" y="36"/>
      <point x="1216" y="396"/>
      <point x="1216" y="972" type="curve" smooth="yes"/>
      <point x="1216" y="1260"/>
      <point x="1028" y="1430"/>
      <point x="744" y="1430" type="curve" smooth="yes"/>
      <point x="460" y="1430"/>
      <point x="214" y="1204"/>
      <point x="214" y="932" type="curve" smooth="yes"/>
      <point x="214" y="710"/>
      <point x="400" y="546"/>
      <point x="658" y="546" type="curve" smooth="yes"/>
      <point x="830" y="546"/>
      <point x="980" y="630"/>
      <point x="1074" y="758" type="curve"/>
      <point x="980" y="396"/>
      <point x="644" y="144"/>
      <point x="164" y="94" type="curve"/>
    </contour>
    <contour>
      <point x="690" y="648" type="curve" smooth="yes"/>
      <point x="488" y="648"/>
      <point x="342" y="782"/>
      <point x="342" y="956" type="curve" smooth="yes"/>
      <point x="342" y="1154"/>
      <point x="514" y="1316"/>
      <point x="736" y="1316" type="curve" smooth="yes"/>
      <point x="952" y="1316"/>
      <point x="1090" y="1190"/>
      <point x="1090" y="1018" type="curve" smooth="yes"/>
      <point x="1090" y="806"/>
      <point x="906" y="648"/>
    </contour>
  </outline>
</glyph>
<glyph name="semicolon" format="2">
  <advance width="624"/>
  <unicode hex="003B"/>
  <outline>
    <contour>
      <point x="388" y="792" type="curve" smooth="yes"/>
      <point x="454" y="792"/>
      <point x="512" y="838"/>
      <point x="512" y="904" type="curve" smooth="yes"/>
      <point x="512" y="960"/>
      <point x="472" y="1000"/>
      <point x="414" y="1000" type="curve" smooth="yes"/>
      <point x="348" y="1000"/>
      <point x="290" y="952"/>
      <point x="290" y="884" type="curve" smooth="yes"/>
      <point x="290" y="830"/>
      <point x="330" y="792"/>
    </contour>
    <contour>
      <point x="52" y="-246" type="line"/>
      <point x="196" y="-182"/>
      <point x="330" y="-72"/>
      <point x="330" y="68" type="curve" smooth="yes"/>
      <point x="330" y="140"/>
      <point x="288" y="178"/>
      <point x="226" y="178" type="curve" smooth="yes"/>
      <point x="164" y="178"/>
      <point x="118" y="137"/>
      <point x="118" y="75" type="curve" smooth="yes"/>
      <point x="118" y="24"/>
      <point x="156" y="-10"/>
      <point x="214" y="-13" type="curve"/>
      <point x="190" y="-64"/>
      <point x="116" y="-129"/>
      <point x="9" y="-177" type="curve"/>
    </contour>
  </outline>
</glyph>
<glyph name="equal" format="2">
  <advance width="1298"/>
  <unicode hex="003D"/>
  <outline>
    <contour>
      <point x="247" y="780" type="line"/>
      <point x="1183" y="780" type="line"/>
      <point x="1203" y="876" type="line"/>
      <point x="267" y="876" type="line"/>
    </contour>
    <contour>
      <point x="175" y="452" type="line"/>
      <point x="1111" y="452" type="line"/>
      <point x="1131" y="548" type="line"/>
      <point x="195" y="548" type="line"/>
    </contour>
  </outline>
</glyph>
<glyph name="C" format="2">
  <advance width="1392"/>
  <unicode hex="0043"/>
  <guideline x="369" y="0" angle="0"/>
  <guideline x="476" y="700" angle="81"/>
  <anchor x="714" y="0" name="bottom"/>
  <anchor x="938" y="1400" name="top"/>
  <outline>
    <contour>
      <point x="802" y="-30" type="curve" smooth="yes"/>
      <point x="960" y="-30"/>
      <point x="1104" y="8"/>
      <point x="1240" y="96" type="curve"/>
      <point x="1204" y="202" type="line"/>
      <point x="1092" y="122"/>
      <point x="970" y="82"/>
      <point x="830" y="82" type="curve" smooth="yes"/>
      <point x="490" y="82"/>
      <point x="278" y="272"/>
      <point x="278" y="594" type="curve" smooth="yes"/>
      <point x="278" y="996"/>
      <point x="534" y="1320"/>
      <point x="932" y="1320" type="curve" smooth="yes"/>
      <point x="1106" y="1320"/>
      <point x="1236" y="1266"/>
      <point x="1322" y="1172" type="curve"/>
      <point x="1406" y="1262" type="line"/>
      <point x="1306" y="1368"/>
      <point x="1148" y="1430"/>
      <point x="938" y="1430" type="curve" smooth="yes"/>
      <point x="492" y="1430"/>
      <point x="154" y="1038"/>
      <point x="154" y="578" type="curve" smooth="yes"/>
      <point x="154" y="212"/>
      <point x="400" y="-30"/>
    </contour>
  </outline>
</glyph>
<glyph name="E" format="2">
  <advance width="1182"/>
  <unicode hex="0045"/>
  <anchor x="502" y="0" name="bottom"/>
  <anchor x="930" y="0" name="ogonek"/>
  <anchor x="798" y="1400" name="top"/>
  <anchor x="316" y="1400" name="topleft"/>
  <outline>
    <contour>
      <point x="100" y="0" type="line"/>
      <point x="930" y="0" type="line"/>
      <point x="952" y="108" type="line"/>
      <point x="238" y="108" type="line"/>
      <point x="362" y="688" type="line"/>
      <point x="990" y="688" type="line"/>
      <point x="1012" y="796" type="line"/>
      <point x="384" y="796" type="line"/>
      <point x="490" y="1292" type="line"/>
      <point x="1198" y="1292" type="line"/>
      <point x="1220" y="1400" type="line"/>
      <point x="396" y="1400" type="line"/>
    </contour>
  </outline>
</glyph>
<glyph name="G" format="2">
  <advance width="1519"/>
  <unicode hex="0047"/>
  <anchor x="803" y="0" name="bottom"/>
  <anchor x="967" y="1400" name="top"/>
  <outline>
    <contour>
      <point x="853" y="-30" type="curve" smooth="yes"/>
      <point x="963" y="-30"/>
      <point x="1131" y="-4"/>
      <point x="1235" y="46" type="curve"/>
      <point x="1373" y="686" type="line"/>
      <point x="913" y="686" type="line"/>
      <point x="889" y="578" type="line"/>
      <point x="1237" y="578" type="line"/>
      <point x="1141" y="114" type="line"/>
      <point x="1081" y="94"/>
      <point x="993" y="78"/>
      <point x="891" y="78" type="curve" smooth="yes"/>
      <point x="511" y="78"/>
      <point x="277" y="280"/>
      <point x="277" y="608" type="curve" smooth="yes"/>
      <point x="277" y="1004"/>
      <point x="547" y="1318"/>
      <point x="955" y="1318" type="curve" smooth="yes"/>
      <point x="1101" y="1318"/>
      <point x="1253" y="1274"/>
      <point x="1365" y="1190" type="curve"/>
      <point x="1438" y="1282" type="line"/>
      <point x="1330" y="1379"/>
      <point x="1161" y="1430"/>
      <point x="983" y="1430" type="curve" smooth="yes"/>
      <point x="511" y="1430"/>
      <point x="157" y="1072"/>
      <point x="157" y="604" type="curve" smooth="yes"/>
      <point x="157" y="218"/>
      <point x="455" y="-30"/>
    </contour>
  </outline>
</glyph>
<glyph name="L" format="2">
  <advance width="1056"/>
  <unicode hex="004C"/>
  <anchor x="488" y="0" name="bottom"/>
  <anchor x="522" y="1440" name="caron"/>
  <anchor x="454" y="1400" name="top"/>
  <outline>
    <contour>
      <point x="100" y="0" type="line"/>
      <point x="874" y="0" type="line"/>
      <point x="896" y="108" type="line"/>
      <point x="238" y="108" type="line"/>
      <point x="512" y="1400" type="line"/>
      <point x="396" y="1400" type="line"/>
    </contour>
  </outline>
</glyph>
<glyph name="M" format="2">
  <advance width="1786"/>
  <unicode hex="004D"/>
  <outline>
    <contour>
      <point x="100" y="0" type="line"/>
      <point x="206" y="0" type="line"/>
      <point x="468" y="1238" type="line"/>
      <point x="450" y="1234" type="line"/>
      <point x="808" y="340" type="line"/>
      <point x="918" y="340" type="line"/>
      <point x="1648" y="1202" type="line"/>
      <point x="1624" y="1214" type="line"/>
      <point x="1368" y="0" type="line"/>
      <point x="1484" y="0" type="line"/>
      <point x="1780" y="1400" type="line"/>
      <point x="1674" y="1400" type="line"/>
      <point x="866" y="426" type="line"/>
      <point x="906" y="418" type="line"/>
      <point x="512" y="1400" type="line"/>
      <point x="396" y="1400" type="line"/>
    </contour>
  </outline>
</glyph>
<glyph name="Q" format="2">
  <advance width="1696"/>
  <unicode hex="0051"/>
  <guideline x="638" y="-42" angle="32.9322"/>
  <guideline x="527" y="272" angle="33.7775"/>
  <outline>
    <contour>
      <point x="1320" y="-50" type="line"/>
      <point x="1408" y="8" type="line"/>
      <point x="1316" y="148" type="line"/>
      <point x="1502" y="300"/>
      <point x="1628" y="534"/>
      <point x="1628" y="782" type="curve" smooth="yes"/>
      <point x="1628" y="1148"/>
      <point x="1356" y="1430"/>
      <point x="964" y="1430" type="curve" smooth="yes"/>
      <point x="524" y="1430"/>
      <point x="158" y="1066"/>
      <point x="158" y="610" type="curve" smooth="yes"/>
      <point x="158" y="244"/>
      <point x="426" y="-30"/>
      <point x="820" y="-30" type="curve" smooth="yes"/>
      <point x="968" y="-30"/>
      <point x="1110" y="14"/>
      <point x="1230" y="88" type="curve"/>
    </contour>
    <contour>
      <point x="830" y="82" type="curve" smooth="yes"/>
      <point x="510" y="82"/>
      <point x="276" y="296"/>
      <point x="276" y="620" type="curve" smooth="yes"/>
      <point x="276" y="996"/>
      <point x="568" y="1318"/>
      <point x="956" y="1318" type="curve" smooth="yes"/>
      <point x="1274" y="1318"/>
      <point x="1508" y="1106"/>
      <point x="1508" y="782" type="curve" smooth="yes"/>
      <point x="1508" y="584"/>
      <point x="1418" y="376"/>
      <point x="1258" y="240" type="curve"/>
      <point x="1050" y="548" type="line"/>
      <point x="964" y="490" type="line"/>
      <point x="1172" y="178" type="line"/>
      <point x="1070" y="116"/>
      <point x="954" y="82"/>
    </contour>
  </outline>
</glyph>
<glyph name="R" format="2">
  <advance width="1286"/>
  <unicode hex="0052"/>
  <anchor x="584" y="0" name="bottom"/>
  <anchor x="814" y="1400" name="top"/>
  <outline>
    <contour>
      <point x="100" y="0" type="line"/>
      <point x="216" y="0" type="line"/>
      <point x="346" y="614" type="line"/>
      <point x="604" y="614" type="line"/>
      <point x="942" y="0" type="line"/>
      <point x="1084" y="0" type="line"/>
      <point x="742" y="612" type="line"/>
      <point x="1024" y="630"/>
      <point x="1242" y="788"/>
      <point x="1242" y="1050" type="curve" smooth="yes"/>
      <point x="1242" y="1260"/>
      <point x="1094" y="1400"/>
      <point x="826" y="1400" type="curve" smooth="yes"/>
      <point x="396" y="1400" type="line"/>
    </contour>
    <contour>
      <point x="368" y="722" type="line"/>
      <point x="490" y="1292" type="line"/>
      <point x="804" y="1292" type="line" smooth="yes"/>
      <point x="1028" y="1292"/>
      <point x="1126" y="1194"/>
      <point x="1126" y="1042" type="curve" smooth="yes"/>
      <point x="1126" y="848"/>
      <point x="976" y="722"/>
      <point x="758" y="722" type="curve" smooth="yes"/>
    </contour>
  </outline>
</glyph>
<glyph name="W" format="2">
  <advance width="2000"/>
  <unicode hex="0057"/>
  <anchor x="1196" y="1400" name="top"/>
  <outline>
    <contour>
      <point x="380" y="0" type="line"/>
      <point x="528" y="0" type="line"/>
      <point x="1162" y="1214" type="line"/>
      <point x="1270" y="0" type="line"/>
      <point x="1420" y="0" type="line"/>
      <point x="2132" y="1400" type="line"/>
      <point x="2004" y="1400" type="line"/>
      <point x="1368" y="130" type="line"/>
      <point x="1264" y="1400" type="line"/>
      <point x="1128" y="1400" type="line"/>
      <point x="480" y="124" type="line"/>
      <point x="384" y="1400" type="line"/>
      <point x="260" y="1400" type="line"/>
    </contour>
  </outline>
</glyph>
<glyph name="X" format="2">
  <advance width="1292"/>
  <unicode hex="0058"/>
  <outline>
    <contour>
      <point x="-24" y="0" type="line"/>
      <point x="114" y="0" type="line"/>
      <point x="670" y="640" type="line"/>
      <point x="980" y="0" type="line"/>
      <point x="1112" y="0" type="line"/>
      <point x="766" y="712" type="line"/>
      <point x="1390" y="1400" type="line"/>
      <point x="1256" y="1400" type="line"/>
      <point x="702" y="802" type="line"/>
      <point x="432" y="1400" type="line"/>
      <point x="302" y="1400" type="line"/>
      <point x="604" y="730" type="line"/>
    </contour>
  </outline>
</glyph>
<glyph name="Z" format="2">
  <advance width="1158"/>
  <unicode hex="005A"/>
  <anchor x="782" y="1400" name="top"/>
  <outline>
    <contour>
      <point x="6" y="0" type="line"/>
      <point x="962" y="0" type="line"/>
      <point x="984" y="108" type="line"/>
      <point x="172" y="108" type="line"/>
      <point x="1230" y="1298" type="line"/>
      <point x="1250" y="1400" type="line"/>
      <point x="324" y="1400" type="line"/>
      <point x="302" y="1292" type="line"/>
      <point x="1086" y="1292" type="line"/>
      <point x="26" y="102" type="line"/>
    </contour>
  </outline>
</glyph>
<glyph name="bracketleft" format="2">
  <advance width="686"/>
  <unicode hex="005B"/>
  <outline>
    <contour>
      <point x="32" y="-420" type="line"/>
      <point x="340" y="-420" type="line"/>
      <point x="360" y="-324" type="line"/>
      <point x="152" y="-324" type="line"/>
      <point x="500" y="1304" type="line"/>
      <point x="708" y="1304" type="line"/>
      <point x="728" y="1400" type="line"/>
      <point x="420" y="1400" type="line"/>
    </contour>
  </outline>
</glyph>
<glyph name="a" format="2">
  <advance width="1058"/>
  <unicode hex="0061"/>
  <anchor x="399" y="0" name="bottom"/>
  <anchor x="795" y="0" name="ogonek"/>
  <anchor x="601" y="960" name="top"/>
  <outline>
    <contour>
      <point x="363" y="-30" type="curve" smooth="yes"/>
      <point x="491" y="-30"/>
      <point x="627" y="14"/>
      <point x="709" y="126" type="curve"/>
      <point x="683" y="0" type="line"/>
      <point x="795" y="0" type="line"/>
      <point x="927" y="606" type="line" smooth="yes"/>
      <point x="983" y="866"/>
      <point x="835" y="1000"/>
      <point x="589" y="1000" type="curve" smooth="yes"/>
      <point x="469" y="1000"/>
      <point x="352" y="969"/>
      <point x="246" y="894" type="curve"/>
      <point x="265" y="792" type="line"/>
      <point x="361" y="858"/>
      <point x="477" y="892"/>
      <point x="567" y="892" type="curve" smooth="yes"/>
      <point x="731" y="892"/>
      <point x="855" y="810"/>
      <point x="811" y="604" type="curve" smooth="yes"/>
      <point x="757" y="350" type="line" smooth="yes"/>
      <point x="727" y="206"/>
      <point x="573" y="78"/>
      <point x="381" y="78" type="curve" smooth="yes"/>
      <point x="255" y="78"/>
      <point x="167" y="142"/>
      <point x="167" y="254" type="curve" smooth="yes"/>
      <point x="167" y="484"/>
      <point x="517" y="498"/>
      <point x="831" y="458" type="curve"/>
      <point x="847" y="552" type="line"/>
      <point x="435" y="612"/>
      <point x="53" y="546"/>
      <point x="53" y="239" type="curve" smooth="yes"/>
      <point x="53" y="72"/>
      <point x="173" y="-30"/>
    </contour>
  </outline>
</glyph>
<glyph name="d" format="2">
  <advance width="1261"/>
  <unicode hex="0064"/>
  <anchor x="1133" y="1204" name="bar"/>
  <anchor x="1295" y="1440" name="caron"/>
  <outline>
    <contour>
      <point x="531" y="-30" type="curve" smooth="yes"/>
      <point x="725" y="-30"/>
      <point x="835" y="56"/>
      <point x="933" y="166" type="curve"/>
      <point x="923" y="212" type="line"/>
      <point x="877" y="0" type="line"/>
      <point x="989" y="0" type="line"/>
      <point x="1295" y="1440" type="line"/>
      <point x="1183" y="1440" type="line"/>
      <point x="1035" y="742" type="line"/>
      <point x="1059" y="742" type="line"/>
      <point x="991" y="886"/>
      <point x="847" y="990"/>
      <point x="623" y="990" type="curve" smooth="yes"/>
      <point x="321" y="990"/>
      <point x="79" y="720"/>
      <point x="79" y="414" type="curve" smooth="yes"/>
      <point x="79" y="156"/>
      <point x="257" y="-30"/>
    </contour>
    <contour>
      <point x="551" y="78" type="curve" smooth="yes"/>
      <point x="337" y="78"/>
      <point x="201" y="212"/>
      <point x="201" y="418" type="curve" smooth="yes"/>
      <point x="201" y="678"/>
      <point x="377" y="882"/>
      <point x="631" y="882" type="curve" smooth="yes"/>
      <point x="845" y="882"/>
      <point x="985" y="750"/>
      <point x="985" y="540" type="curve" smooth="yes"/>
      <point x="985" y="278"/>
      <point x="807" y="78"/>
    </contour>
  </outline>
</glyph>
<glyph name="h" format="2">
  <advance width="1155"/>
  <unicode hex="0068"/>
  <anchor x="496" y="1204" name="bar"/>
  <anchor x="432" y="1440" name="top"/>
  <outline>
    <contour>
      <point x="68" y="0" type="line"/>
      <point x="180" y="0" type="line"/>
      <point x="302" y="570" type="line" smooth="yes"/>
      <point x="344" y="770"/>
      <point x="498" y="882"/>
      <point x="662" y="882" type="curve" smooth="yes"/>
      <point x="834" y="882"/>
      <point x="948" y="776"/>
      <point x="912" y="612" type="curve" smooth="yes"/>
      <point x="780" y="0" type="line"/>
      <point x="892" y="0" type="line"/>
      <point x="1030" y="646" type="line" smooth="yes"/>
      <point x="1070" y="842"/>
      <point x="912" y="990"/>
      <point x="698" y="990" type="curve" smooth="yes"/>
      <point x="576" y="990"/>
      <point x="446" y="942"/>
      <point x="344" y="820" type="curve"/>
      <point x="348" y="784" type="line"/>
      <point x="488" y="1440" type="line"/>
      <point x="376" y="1440" type="line"/>
    </contour>
  </outline>
</glyph>
<glyph name="q" format="2">
  <advance width="1262"/>
  <unicode hex="0071"/>
  <outline>
    <contour>
      <point x="788" y="-420" type="line"/>
      <point x="900" y="-420" type="line"/>
      <point x="1194" y="960" type="line"/>
      <point x="1082" y="960" type="line"/>
      <point x="1036" y="748" type="line"/>
      <point x="1058" y="748" type="line"/>
      <point x="972" y="912"/>
      <point x="814" y="990"/>
      <point x="628" y="990" type="curve" smooth="yes"/>
      <point x="322" y="990"/>
      <point x="80" y="724"/>
      <point x="80" y="416" type="curve" smooth="yes"/>
      <point x="80" y="170"/>
      <point x="248" y="-26"/>
      <point x="524" y="-26" type="curve" smooth="yes"/>
      <point x="712" y="-26"/>
      <point x="836" y="58"/>
      <point x="936" y="178" type="curve"/>
      <point x="924" y="218" type="line"/>
    </contour>
    <contour>
      <point x="552" y="80" type="curve" smooth="yes"/>
      <point x="342" y="80"/>
      <point x="200" y="212"/>
      <point x="200" y="418" type="curve" smooth="yes"/>
      <point x="200" y="666"/>
      <point x="372" y="880"/>
      <point x="632" y="880" type="curve" smooth="yes"/>
      <point x="846" y="880"/>
      <point x="986" y="748"/>
      <point x="986" y="544" type="curve" smooth="yes"/>
      <point x="986" y="292"/>
      <point x="814" y="80"/>
    </contour>
  </outline>
</glyph>
<glyph name="u" format="2">
  <advance width="1144"/>
  <unicode hex="0075"/>
  <anchor x="454" y="0" name="bottom"/>
  <anchor x="872" y="0" name="descender"/>
  <anchor x="1076" y="960" name="horn"/>
  <anchor x="872" y="0" name="ogonek"/>
  <anchor x="666" y="960" name="top"/>
  <outline>
    <contour>
      <point x="442" y="-30" type="curve" smooth="yes"/>
      <point x="558" y="-30"/>
      <point x="684" y="12"/>
      <point x="784" y="120" type="curve"/>
      <point x="760" y="0" type="line"/>
      <point x="872" y="0" type="line"/>
      <point x="1076" y="960" type="line"/>
      <point x="964" y="960" type="line"/>
      <point x="842" y="390" type="line" smooth="yes"/>
      <point x="800" y="190"/>
      <point x="646" y="76"/>
      <point x="486" y="76" type="curve" smooth="yes"/>
      <point x="318" y="76"/>
      <point x="214" y="174"/>
      <point x="246" y="348" type="curve" smooth="yes"/>
      <point x="376" y="960" type="line"/>
      <point x="264" y="960" type="line"/>
      <point x="126" y="314" type="line" smooth="yes"/>
      <point x="88" y="122"/>
      <point x="224" y="-30"/>
    </contour>
  </outline>
</glyph>
<glyph name="y" format="2">
  <advance width="946"/>
  <unicode hex="0079"/>
  <anchor x="612" y="0" name="bottom"/>
  <anchor x="566" y="960" name="top"/>
  <outline>
    <contour>
      <point x="40" y="-450" type="curve" smooth="yes"/>
      <point x="162" y="-450"/>
      <point x="254" y="-394"/>
      <point x="362" y="-204" type="curve" smooth="yes"/>
      <point x="1016" y="960" type="line"/>
      <point x="894" y="960" type="line"/>
      <point x="408" y="94" type="line"/>
      <point x="258" y="960" type="line"/>
      <point x="134" y="960" type="line"/>
      <point x="316" y="-58" type="line"/>
      <point x="250" y="-186" type="line" smooth="yes"/>
      <point x="196" y="-288"/>
      <point x="142" y="-342"/>
      <point x="40" y="-342" type="curve" smooth="yes"/>
      <point x="-10" y="-342"/>
      <point x="-70" y="-322"/>
      <point x="-110" y="-276" type="curve"/>
      <point x="-160" y="-377" type="line"/>
      <point x="-87" y="-442"/>
      <point x="-26" y="-450"/>
    </contour>
  </outline>
</glyph>
<glyph name="z" format="2">
  <advance width="922"/>
  <unicode hex="007A"/>
  <anchor x="562" y="960" name="top"/>
  <outline>
    <contour>
      <point x="-2" y="0" type="line"/>
      <point x="720" y="0" type="line"/>
      <point x="742" y="104" type="line"/>
      <point x="162" y="104" type="line"/>
      <point x="896" y="862" type="line"/>
      <point x="916" y="960" type="line"/>
      <point x="208" y="960" type="line"/>
      <point x="186" y="856" type="line"/>
      <point x="752" y="856" type="line"/>
      <point x="18" y="98" type="line"/>
    </contour>
  </outline>
</glyph>
<glyph name="braceleft" format="2">
  <advance width="686"/>
  <unicode hex="007B"/>
  <outline>
    <contour>
      <point x="341" y="-424" type="curve"/>
      <point x="361" y="-328" type="line"/>
      <point x="213" y="-342"/>
      <point x="179" y="-302"/>
      <point x="213" y="-194" type="curve" smooth="yes"/>
      <point x="365" y="262" type="line" smooth="yes"/>
      <point x="413" y="406"/>
      <point x="395" y="468"/>
      <point x="289" y="490" type="curve"/>
      <point x="289" y="492" type="line"/>
      <point x="401" y="512"/>
      <point x="449" y="576"/>
      <point x="461" y="720" type="curve" smooth="yes"/>
      <point x="505" y="1174" type="line" smooth="yes"/>
      <point x="515" y="1280"/>
      <point x="567" y="1322"/>
      <point x="709" y="1308" type="curve"/>
      <point x="729" y="1404" type="line"/>
      <point x="535" y="1436"/>
      <point x="409" y="1344"/>
      <point x="393" y="1180" type="curve" smooth="yes"/>
      <point x="353" y="704" type="line" smooth="yes"/>
      <point x="341" y="568"/>
      <point x="311" y="540"/>
      <point x="147" y="540" type="curve"/>
      <point x="127" y="444" type="line"/>
      <point x="291" y="444"/>
      <point x="309" y="416"/>
      <point x="261" y="278" type="curve" smooth="yes"/>
      <point x="97" y="-204" type="line" smooth="yes"/>
      <point x="43" y="-366"/>
      <point x="127" y="-456"/>
    </contour>
  </outline>
</glyph>
<glyph name="brokenbar" format="2">
  <advance width="503"/>
  <unicode hex="00A6"/>
  <outline>
    <contour>
      <point x="272" y="810" type="line"/>
      <point x="372" y="810" type="line"/>
      <point x="514" y="1480" type="line"/>
      <point x="414" y="1480" type="line"/>
    </contour>
    <contour>
      <point x="78" y="-100" type="line"/>
      <point x="178" y="-100" type="line"/>
      <point x="320" y="570" type="line"/>
      <point x="220" y="570" type="line"/>
    </contour>
  </outline>
</glyph>
<glyph name="registered" format="2">
  <advance width="1266"/>
  <unicode hex="00AE"/>
  <anchor x="766" y="778" name="bottom"/>
  <anchor x="742" y="988" name="center"/>
  <anchor x="744" y="1198" name="top"/>
  <outline>
    <contour>
      <point x="744" y="478" type="curve" smooth="yes"/>
      <point x="1040" y="478"/>
      <point x="1266" y="698"/>
      <point x="1266" y="986" type="curve" smooth="yes"/>
      <point x="1266" y="1272"/>
      <point x="1038" y="1500"/>
      <point x="740" y="1500" type="curve" smooth="yes"/>
      <point x="442" y="1500"/>
      <point x="218" y="1280"/>
      <point x="218" y="990" type="curve" smooth="yes"/>
      <point x="218" y="700"/>
      <point x="444" y="478"/>
    </contour>
    <contour>
      <point x="744" y="544" type="curve" smooth="yes"/>
      <point x="506" y="544"/>
      <point x="292" y="722"/>
      <point x="292" y="990" type="curve" smooth="yes"/>
      <point x="292" y="1256"/>
      <point x="504" y="1434"/>
      <point x="740" y="1434" type="curve" smooth="yes"/>
      <point x="978" y="1434"/>
      <point x="1192" y="1256"/>
      <point x="1192" y="986" type="curve" smooth="yes"/>
      <point x="1192" y="720"/>
      <point x="980" y="544"/>
    </contour>
    <contour>
      <point x="560" y="714" type="line"/>
      <point x="642" y="714" type="line"/>
      <point x="640" y="938" type="line"/>
      <point x="726" y="938" type="line"/>
      <point x="894" y="714" type="line"/>
      <point x="994" y="714" type="line"/>
      <point x="814" y="950" type="line"/>
      <point x="904" y="964"/>
      <point x="964" y="1020"/>
      <point x="964" y="1100" type="curve" smooth="yes"/>
      <point x="964" y="1198"/>
      <point x="890" y="1262"/>
      <point x="772" y="1262" type="curve" smooth="yes"/>
      <point x="558" y="1262" type="line"/>
    </contour>
    <contour>
      <point x="640" y="1006" type="line"/>
      <point x="640" y="1194" type="line"/>
      <point x="766" y="1194" type="line" smooth="yes"/>
      <point x="842" y="1194"/>
      <point x="882" y="1156"/>
      <point x="882" y="1098" type="curve" smooth="yes"/>
      <point x="882" y="1040"/>
      <point x="836" y="1006"/>
      <point x="758" y="1006" type="curve" smooth="yes"/>
    </contour>
  </outline>
</glyph>
<glyph name="twosuperior" format="2">
  <advance width="828"/>
  <unicode hex="00B2"/>
  <guideline x="211" y="450" angle="0"/>
  <outline>
    <contour>
      <point x="162" y="722" type="line"/>
      <point x="776" y="722" type="line"/>
      <point x="794" y="814" type="line"/>
      <point x="322" y="814" type="line"/>
      <point x="540" y="972" type="line" smooth="yes"/>
      <point x="742" y="1118"/>
      <point x="888" y="1246"/>
      <point x="888" y="1414" type="curve" smooth="yes"/>
      <point x="888" y="1560"/>
      <point x="770" y="1652"/>
      <point x="588" y="1652" type="curve" smooth="yes"/>
      <point x="498" y="1652"/>
      <point x="411" y="1628"/>
      <point x="341" y="1579" type="curve"/>
      <point x="368" y="1500" type="line"/>
      <point x="422" y="1540"/>
      <point x="498" y="1558"/>
      <point x="566" y="1558" type="curve" smooth="yes"/>
      <point x="702" y="1558"/>
      <point x="784" y="1500"/>
      <point x="784" y="1402" type="curve" smooth="yes"/>
      <point x="784" y="1258"/>
      <point x="622" y="1132"/>
      <point x="436" y="994" type="curve" smooth="yes"/>
      <point x="180" y="804" type="line"/>
    </contour>
  </outline>
</glyph>
<glyph name="onesuperior" format="2">
  <advance width="602"/>
  <unicode hex="00B9"/>
  <outline>
    <contour>
      <point x="404" y="722" type="line"/>
      <point x="504" y="722" type="line"/>
      <point x="702" y="1652" type="line"/>
      <point x="692" y="1652" type="line"/>
      <point x="268" y="1510" type="line"/>
      <point x="294" y="1432" type="line"/>
      <point x="576" y="1522" type="line"/>
    </contour>
  </outline>
</glyph>
<glyph name="Oslash" format="2">
  <advance width="1696"/>
  <unicode hex="00D8"/>
  <guideline x="765" y="727" angle="133.7546"/>
  <anchor x="1006" y="1400" name="top"/>
  <outline>
    <contour>
      <point x="220" y="-18" type="line"/>
      <point x="374" y="128" type="line"/>
      <point x="488" y="28"/>
      <point x="640" y="-30"/>
      <point x="820" y="-30" type="curve" smooth="yes"/>
      <point x="1260" y="-30"/>
      <point x="1630" y="344"/>
      <point x="1630" y="780" type="curve" smooth="yes"/>
      <point x="1630" y="940"/>
      <point x="1578" y="1084"/>
      <point x="1486" y="1196" type="curve"/>
      <point x="1640" y="1342" type="line"/>
      <point x="1568" y="1418" type="line"/>
      <point x="1414" y="1270" type="line"/>
      <point x="1298" y="1370"/>
      <point x="1146" y="1430"/>
      <point x="966" y="1430" type="curve" smooth="yes"/>
      <point x="524" y="1430"/>
      <point x="158" y="1058"/>
      <point x="158" y="618" type="curve" smooth="yes"/>
      <point x="158" y="456"/>
      <point x="210" y="312"/>
      <point x="300" y="202" type="curve"/>
      <point x="148" y="58" type="line"/>
    </contour>
    <contour>
      <point x="388" y="286" type="line"/>
      <point x="318" y="372"/>
      <point x="280" y="486"/>
      <point x="280" y="620" type="curve" smooth="yes"/>
      <point x="280" y="1006"/>
      <point x="574" y="1318"/>
      <point x="956" y="1318" type="curve" smooth="yes"/>
      <point x="1102" y="1318"/>
      <point x="1234" y="1272"/>
      <point x="1328" y="1188" type="curve"/>
    </contour>
    <contour>
      <point x="832" y="82" type="curve" smooth="yes"/>
      <point x="686" y="82"/>
      <point x="554" y="128"/>
      <point x="460" y="212" type="curve"/>
      <point x="1400" y="1114" type="line"/>
      <point x="1470" y="1028"/>
      <point x="1508" y="914"/>
      <point x="1508" y="780" type="curve" smooth="yes"/>
      <point x="1508" y="394"/>
      <point x="1214" y="82"/>
    </contour>
  </outline>
</glyph>
<glyph name="germandbls" format="2">
  <advance width="1191"/>
  <unicode hex="00DF"/>
  <guideline x="266" y="307" angle="90"/>
  <outline>
    <contour>
      <point x="656" y="-30" type="curve" smooth="yes"/>
      <point x="898" y="-30"/>
      <point x="1064" y="96"/>
      <point x="1064" y="296" type="curve" smooth="yes"/>
      <point x="1064" y="428"/>
      <point x="978" y="500"/>
      <point x="886" y="564" type="curve" smooth="yes"/>
      <point x="822" y="608"/>
      <point x="750" y="654"/>
      <point x="750" y="730" type="curve" smooth="yes"/>
      <point x="750" y="802"/>
      <point x="820" y="850"/>
      <point x="886" y="906" type="curve" smooth="yes"/>
      <point x="978" y="984"/>
      <point x="1088" y="1046"/>
      <point x="1088" y="1196" type="curve" smooth="yes"/>
      <point x="1088" y="1358"/>
      <point x="944" y="1470"/>
      <point x="716" y="1470" type="curve" smooth="yes"/>
      <point x="488" y="1470"/>
      <point x="350" y="1320"/>
      <point x="302" y="1092" type="curve" smooth="yes"/>
      <point x="68" y="0" type="line"/>
      <point x="180" y="0" type="line"/>
      <point x="406" y="1060" type="line" smooth="yes"/>
      <point x="446" y="1254"/>
      <point x="530" y="1362"/>
      <point x="704" y="1362" type="curve" smooth="yes"/>
      <point x="860" y="1362"/>
      <point x="966" y="1298"/>
      <point x="966" y="1188" type="curve" smooth="yes"/>
      <point x="966" y="1086"/>
      <point x="886" y="1040"/>
      <point x="800" y="966" type="curve" smooth="yes"/>
      <point x="730" y="906"/>
      <point x="624" y="838"/>
      <point x="624" y="718" type="curve" smooth="yes"/>
      <point x="624" y="604"/>
      <point x="724" y="530"/>
      <point x="800" y="474" type="curve" smooth="yes"/>
      <point x="874" y="420"/>
      <point x="940" y="374"/>
      <point x="940" y="276" type="curve" smooth="yes"/>
      <point x="940" y="146"/>
      <point x="834" y="74"/>
      <point x="680" y="74" type="curve" smooth="yes"/>
      <point x="614" y="74"/>
      <point x="540" y="87"/>
      <point x="467" y="131" type="curve"/>
      <point x="401" y="39" type="line"/>
      <point x="491" y="-20"/>
      <point x="598" y="-30"/>
    </contour>
  </outline>
</glyph>
<glyph name="divide" format="2">
  <advance width="1298"/>
  <unicode hex="00F7"/>
  <outline>
    <contour>
      <point x="210" y="616" type="line"/>
      <point x="1144" y="616" type="line"/>
      <point x="1164" y="712" type="line"/>
      <point x="230" y="712" type="line"/>
    </contour>
    <contour>
      <point x="598" y="200" type="curve" smooth="yes"/>
      <point x="656" y="200"/>
      <point x="714" y="246"/>
      <point x="714" y="306" type="curve" smooth="yes"/>
      <point x="714" y="356"/>
      <point x="672" y="392"/>
      <point x="622" y="392" type="curve" smooth="yes"/>
      <point x="562" y="392"/>
      <point x="508" y="346"/>
      <point x="508" y="286" type="curve" smooth="yes"/>
      <point x="508" y="236"/>
      <point x="546" y="200"/>
    </contour>
    <contour>
      <point x="754" y="932" type="curve" smooth="yes"/>
      <point x="816" y="932"/>
      <point x="870" y="980"/>
      <point x="870" y="1038" type="curve" smooth="yes"/>
      <point x="870" y="1088"/>
      <point x="832" y="1124"/>
      <point x="778" y="1124" type="curve" smooth="yes"/>
      <point x="718" y="1124"/>
      <point x="664" y="1078"/>
      <point x="664" y="1016" type="curve" smooth="yes"/>
      <point x="664" y="968"/>
      <point x="702" y="932"/>
    </contour>
  </outline>
</glyph>
<glyph name="dcroat" format="2">
  <advance width="1262"/>
  <unicode hex="0111"/>
  <anchor x="1133" y="1204" name="bar"/>
  <anchor x="1295" y="1440" name="caron"/>
  <outline>
    <contour>
      <point x="752" y="1152" type="line"/>
      <point x="1372" y="1152" type="line"/>
      <point x="1394" y="1256" type="line"/>
      <point x="774" y="1256" type="line"/>
    </contour>
    <component base="d"/>
  </outline>
</glyph>
<glyph name="kgreenlandic" format="2">
  <advance width="1028"/>
  <unicode hex="0138"/>
  <outline>
    <contour>
      <point x="68" y="0" type="line"/>
      <point x="180" y="0" type="line"/>
      <point x="256" y="356" type="line"/>
      <point x="482" y="542" type="line"/>
      <point x="732" y="0" type="line"/>
      <point x="866" y="0" type="line"/>
      <point x="578" y="610" type="line"/>
      <point x="996" y="960" type="line"/>
      <point x="850" y="960" type="line"/>
      <point x="288" y="500" type="line"/>
      <point x="386" y="960" type="line"/>
      <point x="272" y="960" type="line"/>
    </contour>
  </outline>
</glyph>
<glyph name="lslash" format="2">
  <advance width="574"/>
  <unicode hex="0142"/>
  <anchor x="182.0" y="0" name="bottom"/>
  <anchor x="549.384" y="1440" name="caron"/>
  <anchor x="493.384" y="1440" name="top"/>
  <outline>
    <contour>
      <point x="60" y="494" type="line"/>
      <point x="316" y="602" type="line"/>
      <point x="314" y="592" type="line"/>
      <point x="564" y="698" type="line"/>
      <point x="584" y="798" type="line"/>
      <point x="328" y="690" type="line"/>
      <point x="330" y="700" type="line"/>
      <point x="80" y="594" type="line"/>
    </contour>
    <component base="l" yxScale="0.00235" xOffset="58"/>
  </outline>
</glyph>
<glyph name="Eng" format="2">
  <advance width="1453"/>
  <unicode hex="014A"/>
  <guideline x="568" y="406" angle="270"/>
  <outline>
    <contour>
      <point x="1064" y="-30" type="line"/>
      <point x="1104" y="166" type="line"/>
      <point x="500" y="1400" type="line"/>
      <point x="396" y="1400" type="line"/>
      <point x="100" y="0" type="line"/>
      <point x="216" y="0" type="line"/>
      <point x="470" y="1198" type="line"/>
    </contour>
    <contour>
      <point x="846" y="-450" type="curve" smooth="yes"/>
      <point x="980" y="-450"/>
      <point x="1074" y="-362"/>
      <point x="1110" y="-194" type="curve" smooth="yes"/>
      <point x="1448" y="1400" type="line"/>
      <point x="1332" y="1400" type="line"/>
      <point x="998" y="-174" type="line" smooth="yes"/>
      <point x="974" y="-286"/>
      <point x="932" y="-342"/>
      <point x="842" y="-342" type="curve" smooth="yes"/>
      <point x="780" y="-342"/>
      <point x="752" y="-330"/>
      <point x="722" y="-312" type="curve"/>
      <point x="668" y="-404" type="line"/>
      <point x="708" y="-426"/>
      <point x="772" y="-450"/>
    </contour>
  </outline>
</glyph>
<glyph name="Schwa" format="2">
  <advance width="1612"/>
  <unicode hex="018F"/>
  <outline>
    <contour>
      <point x="754" y="-30" type="curve" smooth="yes"/>
      <point x="1208" y="-30"/>
      <point x="1550" y="356"/>
      <point x="1550" y="816" type="curve" smooth="yes"/>
      <point x="1550" y="1180"/>
      <point x="1300" y="1430"/>
      <point x="896" y="1430" type="curve" smooth="yes"/>
      <point x="698" y="1430"/>
      <point x="513" y="1366"/>
      <point x="368" y="1272" type="curve"/>
      <point x="420" y="1178" type="line"/>
      <point x="540" y="1268"/>
      <point x="704" y="1318"/>
      <point x="874" y="1318" type="curve" smooth="yes"/>
      <point x="1224" y="1318"/>
      <point x="1430" y="1122"/>
      <point x="1430" y="812" type="curve" smooth="yes"/>
      <point x="1430" y="420"/>
      <point x="1166" y="82"/>
      <point x="770" y="82" type="curve" smooth="yes"/>
      <point x="454" y="82"/>
      <point x="214" y="338"/>
      <point x="284" y="638" type="curve"/>
      <point x="228" y="602" type="line"/>
      <point x="1438" y="602" type="line"/>
      <point x="1460" y="710" type="line"/>
      <point x="160" y="710" type="line"/>
      <point x="92" y="286"/>
      <point x="334" y="-30"/>
    </contour>
  </outline>
</glyph>
<glyph name="jdotless" format="2">
  <advance width="452"/>
  <unicode hex="0237"/>
  <anchor x="328" y="960" name="top"/>
  <outline>
    <contour>
      <point x="-126" y="-450" type="curve" smooth="yes"/>
      <point x="8" y="-450"/>
      <point x="102" y="-364"/>
      <point x="138" y="-194" type="curve" smooth="yes"/>
      <point x="384" y="960" type="line"/>
      <point x="272" y="960" type="line"/>
      <point x="30" y="-174" type="line" smooth="yes"/>
      <point x="6" y="-286"/>
      <point x="-34" y="-342"/>
      <point x="-124" y="-342" type="curve" smooth="yes"/>
      <point x="-184" y="-342"/>
      <point x="-214" y="-328"/>
      <point x="-242" y="-310" type="curve"/>
      <point x="-299" y="-402" type="line"/>
      <point x="-259" y="-426"/>
      <point x="-198" y="-450"/>
    </contour>
  </outline>
</glyph>
<glyph name="acutecomb" format="2">
  <unicode hex="0301"/>
  <anchor x="-666" y="960" name="_top"/>
  <outline>
    <contour>
      <point x="-686" y="1170" type="line"/>
      <point x="-574" y="1170" type="line"/>
      <point x="-312" y="1504" type="line"/>
      <point x="-436" y="1504" type="line"/>
    </contour>
  </outline>
</glyph>
<glyph name="circumflexcomb" format="2">
  <unicode hex="0302"/>
  <anchor x="-666" y="960" name="_top"/>
  <anchor x="-564" y="1444" name="top"/>
  <anchor x="-302" y="1224" name="top_right"/>
  <outline>
    <contour>
      <point x="-938" y="1170" type="line"/>
      <point x="-806" y="1170" type="line"/>
      <point x="-554" y="1426" type="line"/>
      <point x="-426" y="1170" type="line"/>
      <point x="-314" y="1170" type="line"/>
      <point x="-480" y="1504" type="line"/>
      <point x="-608" y="1504" type="line"/>
    </contour>
  </outline>
</glyph>
<glyph name="tildecomb" format="2">
  <unicode hex="0303"/>
  <anchor x="-666" y="960" name="_top"/>
  <anchor x="-584" y="1344" name="top"/>
  <outline>
    <contour>
      <point x="-880" y="1216" type="line"/>
      <point x="-834" y="1296"/>
      <point x="-786" y="1340"/>
      <point x="-730" y="1340" type="curve" smooth="yes"/>
      <point x="-644" y="1340"/>
      <point x="-574" y="1236"/>
      <point x="-464" y="1236" type="curve" smooth="yes"/>
      <point x="-380" y="1236"/>
      <point x="-294" y="1302"/>
      <point x="-228" y="1414" type="curve"/>
      <point x="-292" y="1460" type="line"/>
      <point x="-334" y="1382"/>
      <point x="-386" y="1334"/>
      <point x="-442" y="1334" type="curve" smooth="yes"/>
      <point x="-528" y="1334"/>
      <point x="-598" y="1440"/>
      <point x="-708" y="1440" type="curve" smooth="yes"/>
      <point x="-798" y="1440"/>
      <point x="-882" y="1366"/>
      <point x="-944" y="1260" type="curve"/>
    </contour>
  </outline>
</glyph>
<glyph name="brevecomb" format="2">
  <unicode hex="0306"/>
  <anchor x="-666" y="960" name="_top"/>
  <anchor x="-570" y="1404" name="top"/>
  <outline>
    <contour>
      <point x="-594" y="1160" type="curve" smooth="yes"/>
      <point x="-406" y="1160"/>
      <point x="-250" y="1304"/>
      <point x="-234" y="1504" type="curve"/>
      <point x="-336" y="1504" type="line"/>
      <point x="-348" y="1354"/>
      <point x="-446" y="1256"/>
      <point x="-582" y="1256" type="curve" smooth="yes"/>
      <point x="-722" y="1256"/>
      <point x="-804" y="1346"/>
      <point x="-784" y="1504" type="curve"/>
      <point x="-888" y="1504" type="line"/>
      <point x="-908" y="1294"/>
      <point x="-792" y="1160"/>
    </contour>
  </outline>
</glyph>
<glyph name="dotaccentcomb" format="2">
  <unicode hex="0307"/>
  <anchor x="-482" y="960" name="_top"/>
  <anchor x="-414" y="1284" name="top"/>
  <outline>
    <contour>
      <point x="-432" y="1162" type="curve" smooth="yes"/>
      <point x="-378" y="1162"/>
      <point x="-324" y="1210"/>
      <point x="-324" y="1266" type="curve" smooth="yes"/>
      <point x="-324" y="1312"/>
      <point x="-360" y="1350"/>
      <point x="-408" y="1350" type="curve" smooth="yes"/>
      <point x="-462" y="1350"/>
      <point x="-516" y="1302"/>
      <point x="-516" y="1246" type="curve" smooth="yes"/>
      <point x="-516" y="1202"/>
      <point x="-480" y="1162"/>
    </contour>
  </outline>
</glyph>
<glyph name="breveinvertedcomb" format="2">
  <unicode hex="0311"/>
  <anchor x="-668" y="960" name="_top"/>
  <outline>
    <contour>
      <point x="-940" y="1170" type="curve"/>
      <point x="-840" y="1170" type="line"/>
      <point x="-828" y="1320"/>
      <point x="-726" y="1418"/>
      <point x="-592" y="1418" type="curve" smooth="yes"/>
      <point x="-440" y="1418"/>
      <point x="-368" y="1314"/>
      <point x="-392" y="1170" type="curve"/>
      <point x="-288" y="1170" type="line"/>
      <point x="-260" y="1360"/>
      <point x="-380" y="1514"/>
      <point x="-580" y="1514" type="curve" smooth="yes"/>
      <point x="-772" y="1514"/>
      <point x="-926" y="1372"/>
    </contour>
  </outline>
</glyph>
<glyph name="commaturnedabovecomb" format="2">
  <unicode hex="0312"/>
  <anchor x="-686" y="960" name="_top"/>
  <outline>
    <contour>
      <point x="-596" y="1244" type="curve" smooth="yes"/>
      <point x="-538" y="1244"/>
      <point x="-496" y="1281"/>
      <point x="-496" y="1334" type="curve" smooth="yes"/>
      <point x="-496" y="1382"/>
      <point x="-534" y="1413"/>
      <point x="-589" y="1415" type="curve"/>
      <point x="-567" y="1459"/>
      <point x="-499" y="1511"/>
      <point x="-403" y="1551" type="curve"/>
      <point x="-445" y="1613" type="line"/>
      <point x="-576" y="1557"/>
      <point x="-697" y="1465"/>
      <point x="-697" y="1347" type="curve" smooth="yes"/>
      <point x="-697" y="1279"/>
      <point x="-655" y="1244"/>
    </contour>
  </outline>
</glyph>
<glyph name="horncomb" format="2">
  <unicode hex="031B"/>
  <anchor x="-208" y="960" name="_horn"/>
  <outline>
    <contour>
      <point x="-170" y="836" type="curve" smooth="yes"/>
      <point x="-38" y="836"/>
      <point x="36" y="918"/>
      <point x="36" y="1014" type="curve" smooth="yes"/>
      <point x="36" y="1062"/>
      <point x="18" y="1114"/>
      <point x="-22" y="1166" type="curve"/>
      <point x="-118" y="1126" type="line"/>
      <point x="-84" y="1080"/>
      <point x="-72" y="1036"/>
      <point x="-72" y="1002" type="curve" smooth="yes"/>
      <point x="-72" y="942"/>
      <point x="-122" y="916"/>
      <point x="-190" y="920" type="curve" smooth="yes"/>
      <point x="-272" y="925"/>
      <point x="-438" y="990"/>
      <point x="-620" y="990" type="curve"/>
      <point x="-634" y="922" type="line"/>
      <point x="-432" y="930"/>
      <point x="-280" y="836"/>
    </contour>
  </outline>
</glyph>
<glyph name="dieresisbelowcomb" format="2">
  <unicode hex="0324"/>
  <anchor x="-524" y="0" name="_bottom"/>
  <outline>
    <contour>
      <point x="-762" y="-390" type="curve" smooth="yes"/>
      <point x="-708" y="-390"/>
      <point x="-654" y="-342"/>
      <point x="-654" y="-286" type="curve" smooth="yes"/>
      <point x="-654" y="-240"/>
      <point x="-690" y="-202"/>
      <point x="-738" y="-202" type="curve" smooth="yes"/>
      <point x="-792" y="-202"/>
      <point x="-846" y="-250"/>
      <point x="-846" y="-306" type="curve" smooth="yes"/>
      <point x="-846" y="-350"/>
      <point x="-810" y="-390"/>
    </contour>
    <contour>
      <point x="-438" y="-390" type="curve" smooth="yes"/>
      <point x="-384" y="-390"/>
      <point x="-330" y="-342"/>
      <point x="-330" y="-286" type="curve" smooth="yes"/>
      <point x="-330" y="-240"/>
      <point x="-366" y="-202"/>
      <point x="-414" y="-202" type="curve" smooth="yes"/>
      <point x="-468" y="-202"/>
      <point x="-522" y="-250"/>
      <point x="-522" y="-306" type="curve" smooth="yes"/>
      <point x="-522" y="-350"/>
      <point x="-486" y="-390"/>
    </contour>
  </outline>
</glyph>
<glyph name="commaaccentcomb" format="2">
  <unicode hex="0326"/>
  <anchor x="-486" y="0" name="_bottom"/>
  <outline>
    <contour>
      <point x="-727" y="-653" type="line"/>
      <point x="-596" y="-597"/>
      <point x="-475" y="-505"/>
      <point x="-475" y="-387" type="curve" smooth="yes"/>
      <point x="-475" y="-319"/>
      <point x="-517" y="-284"/>
      <point x="-576" y="-284" type="curve" smooth="yes"/>
      <point x="-634" y="-284"/>
      <point x="-676" y="-321"/>
      <point x="-676" y="-374" type="curve" smooth="yes"/>
      <point x="-676" y="-422"/>
      <point x="-638" y="-453"/>
      <point x="-583" y="-455" type="curve"/>
      <point x="-605" y="-499"/>
      <point x="-673" y="-551"/>
      <point x="-769" y="-591" type="curve"/>
    </contour>
  </outline>
</glyph>
<glyph name="macronbelowcomb" format="2">
  <unicode hex="0331"/>
  <anchor x="-688" y="0" name="_bottom"/>
  <outline>
    <contour>
      <point x="-1056" y="-374" type="line"/>
      <point x="-480" y="-374" type="line"/>
      <point x="-456" y="-270" type="line"/>
      <point x="-1032" y="-270" type="line"/>
    </contour>
  </outline>
</glyph>
<glyph name="Delta" format="2">
  <advance width="1323"/>
  <unicode hex="0394"/>
  <outline>
    <contour>
      <point x="-60" y="0" type="line"/>
      <point x="1180" y="0" type="line"/>
      <point x="1200" y="98" type="line"/>
      <point x="894" y="1400" type="line"/>
      <point x="794" y="1400" type="line"/>
      <point x="-40" y="98" type="line"/>
    </contour>
    <contour>
      <point x="100" y="108" type="line"/>
      <point x="812" y="1228" type="line"/>
      <point x="1070" y="108" type="line"/>
    </contour>
  </outline>
</glyph>
<glyph name="Lambda" format="2">
  <advance width="1278"/>
  <unicode hex="039B"/>
  <outline>
    <contour>
      <point x="-61" y="0" type="line"/>
      <point x="75" y="0" type="line"/>
      <point x="787" y="1218" type="line"/>
      <point x="1007" y="0" type="line"/>
      <point x="1135" y="0" type="line"/>
      <point x="871" y="1400" type="line"/>
      <point x="771" y="1400" type="line"/>
    </contour>
  </outline>
</glyph>
<glyph name="Psi" format="2">
  <advance width="1518"/>
  <unicode hex="03A8"/>
  <outline>
    <contour>
      <point x="600" y="0" type="line"/>
      <point x="716" y="0" type="line"/>
      <point x="793" y="361" type="line"/>
      <point x="1267" y="361"/>
      <point x="1499" y="654"/>
      <point x="1499" y="1252" type="curve" smooth="yes"/>
      <point x="1499" y="1303"/>
      <point x="1497" y="1359"/>
      <point x="1494" y="1420" type="curve"/>
      <point x="1374" y="1390" type="line"/>
      <point x="1377" y="1327"/>
      <point x="1379" y="1269"/>
      <point x="1379" y="1217" type="curve" smooth="yes"/>
      <point x="1379" y="776"/>
      <point x="1237" y="476"/>
      <point x="816" y="470" type="curve"/>
      <point x="1014" y="1400" type="line"/>
      <point x="898" y="1400" type="line"/>
      <point x="701" y="475" type="line"/>
      <point x="488" y="499"/>
      <point x="351" y="603"/>
      <point x="351" y="831" type="curve" smooth="yes"/>
      <point x="351" y="1013"/>
      <point x="421" y="1240"/>
      <point x="534" y="1390" type="curve"/>
      <point x="426" y="1420" type="line"/>
      <point x="309" y="1276"/>
      <point x="233" y="1006"/>
      <point x="233" y="807" type="curve" smooth="yes"/>
      <point x="233" y="526"/>
      <point x="409" y="395"/>
      <point x="678" y="367" type="curve"/>
    </contour>
  </outline>
</glyph>
<glyph name="delta" format="2">
  <advance width="1126"/>
  <unicode hex="03B4"/>
  <outline>
    <contour>
      <point x="491" y="-30" type="curve" smooth="yes"/>
      <point x="817" y="-30"/>
      <point x="1043" y="226"/>
      <point x="1043" y="528" type="curve" smooth="yes"/>
      <point x="1043" y="784"/>
      <point x="891" y="884"/>
      <point x="749" y="956" type="curve" smooth="yes"/>
      <point x="623" y="1020"/>
      <point x="503" y="1086"/>
      <point x="503" y="1198" type="curve" smooth="yes"/>
      <point x="503" y="1312"/>
      <point x="627" y="1362"/>
      <point x="787" y="1362" type="curve" smooth="yes"/>
      <point x="883" y="1362"/>
      <point x="967" y="1340"/>
      <point x="1047" y="1276" type="curve"/>
      <point x="1107" y="1382" type="line"/>
      <point x="1017" y="1446"/>
      <point x="913" y="1470"/>
      <point x="801" y="1470" type="curve" smooth="yes"/>
      <point x="531" y="1470"/>
      <point x="391" y="1334"/>
      <point x="391" y="1190" type="curve" smooth="yes"/>
      <point x="391" y="1084"/>
      <point x="467" y="1008"/>
      <point x="563" y="950" type="curve"/>
      <point x="273" y="878"/>
      <point x="73" y="678"/>
      <point x="73" y="382" type="curve" smooth="yes"/>
      <point x="73" y="138"/>
      <point x="229" y="-30"/>
    </contour>
    <contour>
      <point x="509" y="78" type="curve" smooth="yes"/>
      <point x="313" y="78"/>
      <point x="193" y="182"/>
      <point x="193" y="394" type="curve" smooth="yes"/>
      <point x="193" y="676"/>
      <point x="363" y="818"/>
      <point x="653" y="880" type="curve"/>
      <point x="791" y="820"/>
      <point x="921" y="740"/>
      <point x="921" y="518" type="curve" smooth="yes"/>
      <point x="921" y="284"/>
      <point x="767" y="78"/>
    </contour>
  </outline>
</glyph>
<glyph name="epsilon" format="2">
  <advance width="1008"/>
  <unicode hex="03B5"/>
  <anchor x="557" y="960" name="top"/>
  <outline>
    <contour>
      <point x="435" y="-30" type="curve" smooth="yes"/>
      <point x="571" y="-30"/>
      <point x="701" y="-2"/>
      <point x="843" y="74" type="curve"/>
      <point x="791" y="174" type="line"/>
      <point x="701" y="112"/>
      <point x="571" y="78"/>
      <point x="439" y="78" type="curve" smooth="yes"/>
      <point x="263" y="78"/>
      <point x="163" y="146"/>
      <point x="163" y="254" type="curve" smooth="yes"/>
      <point x="163" y="388"/>
      <point x="319" y="440"/>
      <point x="499" y="440" type="curve" smooth="yes"/>
      <point x="667" y="440" type="line"/>
      <point x="689" y="544" type="line"/>
      <point x="521" y="544" type="line" smooth="yes"/>
      <point x="381" y="544"/>
      <point x="283" y="600"/>
      <point x="283" y="704" type="curve" smooth="yes"/>
      <point x="283" y="830"/>
      <point x="429" y="880"/>
      <point x="595" y="880" type="curve" smooth="yes"/>
      <point x="721" y="880"/>
      <point x="821" y="858"/>
      <point x="887" y="808" type="curve"/>
      <point x="965" y="906" type="line"/>
      <point x="871" y="964"/>
      <point x="735" y="988"/>
      <point x="603" y="988" type="curve" smooth="yes"/>
      <point x="369" y="988"/>
      <point x="165" y="892"/>
      <point x="165" y="712" type="curve" smooth="yes"/>
      <point x="165" y="614"/>
      <point x="227" y="552"/>
      <point x="325" y="506" type="curve"/>
      <point x="165" y="468"/>
      <point x="43" y="380"/>
      <point x="43" y="232" type="curve" smooth="yes"/>
      <point x="43" y="64"/>
      <point x="197" y="-30"/>
    </contour>
  </outline>
</glyph>
<glyph name="zeta" format="2">
  <advance width="886"/>
  <unicode hex="03B6"/>
  <outline>
    <contour>
      <point x="551" y="-436" type="line"/>
      <point x="650" y="-331"/>
      <point x="702" y="-227"/>
      <point x="702" y="-134" type="curve" smooth="yes"/>
      <point x="702" y="140"/>
      <point x="204" y="151"/>
      <point x="204" y="455" type="curve" smooth="yes"/>
      <point x="204" y="750"/>
      <point x="688" y="1100"/>
      <point x="1034" y="1344" type="curve"/>
      <point x="1056" y="1440" type="line"/>
      <point x="312" y="1440" type="line"/>
      <point x="290" y="1336" type="line"/>
      <point x="878" y="1336" type="line"/>
      <point x="522" y="1088"/>
      <point x="80" y="763"/>
      <point x="80" y="442" type="curve" smooth="yes"/>
      <point x="80" y="80"/>
      <point x="583" y="46"/>
      <point x="583" y="-168" type="curve" smooth="yes"/>
      <point x="583" y="-227"/>
      <point x="538" y="-307"/>
      <point x="449" y="-400" type="curve"/>
    </contour>
  </outline>
</glyph>
<glyph name="iota" format="2">
  <advance width="572"/>
  <unicode hex="03B9"/>
  <anchor x="320" y="960" name="top"/>
  <outline>
    <contour>
      <point x="278" y="-30" type="curve" smooth="yes"/>
      <point x="314" y="-30"/>
      <point x="376" y="-24"/>
      <point x="434" y="-6" type="curve"/>
      <point x="420" y="98" type="line"/>
      <point x="376" y="86"/>
      <point x="338" y="78"/>
      <point x="306" y="78" type="curve" smooth="yes"/>
      <point x="210" y="78"/>
      <point x="206" y="150"/>
      <point x="226" y="256" type="curve" smooth="yes"/>
      <point x="376" y="960" type="line"/>
      <point x="264" y="960" type="line"/>
      <point x="102" y="204" type="line" smooth="yes"/>
      <point x="70" y="66"/>
      <point x="126" y="-30"/>
    </contour>
  </outline>
</glyph>
<glyph name="mu" format="2">
  <advance width="1162"/>
  <unicode hex="03BC"/>
  <outline>
    <contour>
      <point x="-20" y="-420" type="line"/>
      <point x="92" y="-420" type="line"/>
      <point x="202" y="98" type="line"/>
      <point x="242" y="4"/>
      <point x="344" y="-30"/>
      <point x="464" y="-30" type="curve" smooth="yes"/>
      <point x="584" y="-30"/>
      <point x="694" y="8"/>
      <point x="806" y="136" type="curve"/>
      <point x="778" y="0" type="line"/>
      <point x="890" y="0" type="line"/>
      <point x="1094" y="960" type="line"/>
      <point x="982" y="960" type="line"/>
      <point x="862" y="390" type="line" smooth="yes"/>
      <point x="820" y="186"/>
      <point x="646" y="76"/>
      <point x="492" y="76" type="curve" smooth="yes"/>
      <point x="324" y="76"/>
      <point x="220" y="176"/>
      <point x="260" y="370" type="curve" smooth="yes"/>
      <point x="384" y="960" type="line"/>
      <point x="272" y="960" type="line"/>
    </contour>
  </outline>
</glyph>
<glyph name="pi" format="2">
  <advance width="1185"/>
  <unicode hex="03C0"/>
  <outline>
    <contour>
      <point x="857" y="-28" type="curve" smooth="yes"/>
      <point x="903" y="-28"/>
      <point x="955" y="-16"/>
      <point x="1001" y="-4" type="curve"/>
      <point x="995" y="100" type="line"/>
      <point x="961" y="88"/>
      <point x="925" y="80"/>
      <point x="893" y="80" type="curve" smooth="yes"/>
      <point x="813" y="80"/>
      <point x="803" y="124"/>
      <point x="833" y="268" type="curve" smooth="yes"/>
      <point x="957" y="852" type="line"/>
      <point x="1183" y="852" type="line"/>
      <point x="1207" y="960" type="line"/>
      <point x="163" y="960" type="line"/>
      <point x="139" y="852" type="line"/>
      <point x="345" y="852" type="line"/>
      <point x="121" y="0" type="line"/>
      <point x="235" y="0" type="line"/>
      <point x="459" y="852" type="line"/>
      <point x="845" y="852" type="line"/>
      <point x="707" y="204" type="line" smooth="yes"/>
      <point x="671" y="36"/>
      <point x="743" y="-28"/>
    </contour>
  </outline>
</glyph>
<glyph name="rho" format="2">
  <advance width="1260"/>
  <unicode hex="03C1"/>
  <outline>
    <contour>
      <point x="-31" y="-420" type="line"/>
      <point x="81" y="-420" type="line"/>
      <point x="215" y="204" type="line"/>
      <point x="289" y="68"/>
      <point x="433" y="-30"/>
      <point x="619" y="-30" type="curve" smooth="yes"/>
      <point x="935" y="-30"/>
      <point x="1179" y="230"/>
      <point x="1179" y="536" type="curve" smooth="yes"/>
      <point x="1179" y="784"/>
      <point x="1001" y="990"/>
      <point x="723" y="990" type="curve" smooth="yes"/>
      <point x="439" y="990"/>
      <point x="233" y="822"/>
      <point x="171" y="530" type="curve" smooth="yes"/>
    </contour>
    <contour>
      <point x="633" y="78" type="curve" smooth="yes"/>
      <point x="417" y="78"/>
      <point x="279" y="210"/>
      <point x="279" y="420" type="curve" smooth="yes"/>
      <point x="279" y="672"/>
      <point x="431" y="882"/>
      <point x="709" y="882" type="curve" smooth="yes"/>
      <point x="923" y="882"/>
      <point x="1059" y="748"/>
      <point x="1059" y="538" type="curve" smooth="yes"/>
      <point x="1059" y="286"/>
      <point x="891" y="78"/>
    </contour>
  </outline>
</glyph>
<glyph name="sigmafinal" format="2">
  <advance width="954"/>
  <unicode hex="03C2"/>
  <outline>
    <contour>
      <point x="593" y="-436" type="line"/>
      <point x="699" y="-288"/>
      <point x="745" y="-192"/>
      <point x="745" y="-110" type="curve" smooth="yes"/>
      <point x="745" y="-4"/>
      <point x="669" y="60"/>
      <point x="499" y="120" type="curve" smooth="yes"/>
      <point x="315" y="186"/>
      <point x="207" y="280"/>
      <point x="207" y="460" type="curve" smooth="yes"/>
      <point x="207" y="714"/>
      <point x="381" y="882"/>
      <point x="631" y="882" type="curve" smooth="yes"/>
      <point x="755" y="882"/>
      <point x="855" y="836"/>
      <point x="911" y="780" type="curve"/>
      <point x="983" y="884" type="line"/>
      <point x="917" y="946"/>
      <point x="805" y="990"/>
      <point x="657" y="990" type="curve" smooth="yes"/>
      <point x="329" y="990"/>
      <point x="87" y="774"/>
      <point x="87" y="448" type="curve" smooth="yes"/>
      <point x="87" y="240"/>
      <point x="223" y="98"/>
      <point x="447" y="16" type="curve" smooth="yes"/>
      <point x="561" y="-26"/>
      <point x="625" y="-58"/>
      <point x="625" y="-130" type="curve" smooth="yes"/>
      <point x="625" y="-194"/>
      <point x="575" y="-278"/>
      <point x="487" y="-400" type="curve"/>
    </contour>
  </outline>
</glyph>
<glyph name="upsilon" format="2">
  <advance width="1097"/>
  <unicode hex="03C5"/>
  <anchor x="615" y="960" name="top"/>
  <outline>
    <contour>
      <point x="441" y="-30" type="curve" smooth="yes"/>
      <point x="760" y="-30"/>
      <point x="953" y="224"/>
      <point x="953" y="582" type="curve" smooth="yes"/>
      <point x="953" y="717"/>
      <point x="922" y="856"/>
      <point x="860" y="993" type="curve"/>
      <point x="749" y="935" type="line"/>
      <point x="805" y="823"/>
      <point x="834" y="705"/>
      <point x="833" y="585" type="curve" smooth="yes"/>
      <point x="831" y="298"/>
      <point x="707" y="80"/>
      <point x="449" y="80" type="curve" smooth="yes"/>
      <point x="287" y="80"/>
      <point x="207" y="170"/>
      <point x="257" y="402" type="curve" smooth="yes"/>
      <point x="375" y="960" type="line"/>
      <point x="263" y="960" type="line"/>
      <point x="137" y="374" type="line" smooth="yes"/>
      <point x="83" y="122"/>
      <point x="217" y="-30"/>
    </contour>
  </outline>
</glyph>
<glyph name="phi" format="2">
  <advance width="1355"/>
  <unicode hex="03C6"/>
  <outline>
    <contour>
      <point x="394" y="-420" type="line"/>
      <point x="506" y="-420" type="line"/>
      <point x="724" y="620" type="line" smooth="yes"/>
      <point x="764" y="812"/>
      <point x="821" y="884"/>
      <point x="952" y="884" type="curve" smooth="yes"/>
      <point x="1067" y="884"/>
      <point x="1152" y="793"/>
      <point x="1152" y="608" type="curve" smooth="yes"/>
      <point x="1152" y="315"/>
      <point x="952" y="95"/>
      <point x="624" y="95" type="curve" smooth="yes"/>
      <point x="389" y="95"/>
      <point x="224" y="211"/>
      <point x="224" y="452" type="curve" smooth="yes"/>
      <point x="224" y="652"/>
      <point x="317" y="801"/>
      <point x="473" y="936" type="curve"/>
      <point x="388" y="993" type="line"/>
      <point x="207" y="843"/>
      <point x="102" y="667"/>
      <point x="102" y="443" type="curve" smooth="yes"/>
      <point x="102" y="149"/>
      <point x="306" y="-10"/>
      <point x="607" y="-10" type="curve" smooth="yes"/>
      <point x="1000" y="-10"/>
      <point x="1274" y="261"/>
      <point x="1274" y="616" type="curve" smooth="yes"/>
      <point x="1274" y="859"/>
      <point x="1143" y="990"/>
      <point x="966" y="990" type="curve" smooth="yes"/>
      <point x="780" y="990"/>
      <point x="665" y="871"/>
      <point x="613" y="625" type="curve" smooth="yes"/>
    </contour>
  </outline>
</glyph>
<glyph name="psi" format="2">
  <advance width="1397"/>
  <unicode hex="03C8"/>
  <outline>
    <contour>
      <point x="443" y="-420" type="line"/>
      <point x="555" y="-420" type="line"/>
      <point x="643" y="0" type="line"/>
      <point x="1025" y="0"/>
      <point x="1257" y="242"/>
      <point x="1257" y="582" type="curve" smooth="yes"/>
      <point x="1257" y="717"/>
      <point x="1226" y="856"/>
      <point x="1164" y="993" type="curve"/>
      <point x="1053" y="935" type="line"/>
      <point x="1109" y="823"/>
      <point x="1138" y="705"/>
      <point x="1137" y="585" type="curve" smooth="yes"/>
      <point x="1134" y="314"/>
      <point x="983" y="108"/>
      <point x="667" y="108" type="curve"/>
      <point x="915" y="1280" type="line"/>
      <point x="803" y="1280" type="line"/>
      <point x="555" y="108" type="line"/>
      <point x="275" y="120"/>
      <point x="227" y="264"/>
      <point x="285" y="536" type="curve" smooth="yes"/>
      <point x="375" y="960" type="line"/>
      <point x="263" y="960" type="line"/>
      <point x="173" y="536" type="line" smooth="yes"/>
      <point x="111" y="242"/>
      <point x="165" y="14"/>
      <point x="531" y="0" type="curve"/>
    </contour>
  </outline>
</glyph>
<glyph name="omega" format="2">
  <advance width="1538"/>
  <unicode hex="03C9"/>
  <anchor x="668" y="0" name="bottom"/>
  <anchor x="870" y="960" name="top"/>
  <outline>
    <contour>
      <point x="391" y="-21" type="curve" smooth="yes"/>
      <point x="509" y="-21"/>
      <point x="632" y="45"/>
      <point x="708" y="192" type="curve"/>
      <point x="727" y="68"/>
      <point x="852" y="-20"/>
      <point x="989" y="-20" type="curve" smooth="yes"/>
      <point x="1260" y="-20"/>
      <point x="1425" y="272"/>
      <point x="1425" y="582" type="curve" smooth="yes"/>
      <point x="1425" y="717"/>
      <point x="1394" y="856"/>
      <point x="1332" y="993" type="curve"/>
      <point x="1221" y="935" type="line"/>
      <point x="1277" y="823"/>
      <point x="1306" y="705"/>
      <point x="1305" y="585" type="curve" smooth="yes"/>
      <point x="1305" y="345"/>
      <point x="1202" y="90"/>
      <point x="990" y="90" type="curve" smooth="yes"/>
      <point x="809" y="90"/>
      <point x="767" y="228"/>
      <point x="818" y="428" type="curve" smooth="yes"/>
      <point x="874" y="694" type="line"/>
      <point x="754" y="694" type="line"/>
      <point x="698" y="428" type="line" smooth="yes"/>
      <point x="651" y="214"/>
      <point x="573" y="90"/>
      <point x="424" y="90" type="curve" smooth="yes"/>
      <point x="283" y="90"/>
      <point x="221" y="189"/>
      <point x="221" y="335" type="curve" smooth="yes"/>
      <point x="221" y="554"/>
      <point x="332" y="781"/>
      <point x="507" y="935" type="curve"/>
      <point x="420" y="993" type="line"/>
      <point x="230" y="830"/>
      <point x="100" y="578"/>
      <point x="100" y="334" type="curve" smooth="yes"/>
      <point x="100" y="130"/>
      <point x="200" y="-21"/>
    </contour>
  </outline>
</glyph>
<glyph name="E-cy" format="2">
  <advance width="1430"/>
  <unicode hex="0404"/>
  <outline>
    <contour>
      <point x="819" y="-30" type="curve" smooth="yes"/>
      <point x="981" y="-30"/>
      <point x="1129" y="8"/>
      <point x="1267" y="96" type="curve"/>
      <point x="1231" y="202" type="line"/>
      <point x="1111" y="118"/>
      <point x="983" y="82"/>
      <point x="847" y="82" type="curve" smooth="yes"/>
      <point x="495" y="82"/>
      <point x="277" y="272"/>
      <point x="277" y="598" type="curve" smooth="yes"/>
      <point x="277" y="1000"/>
      <point x="537" y="1320"/>
      <point x="945" y="1320" type="curve" smooth="yes"/>
      <point x="1119" y="1320"/>
      <point x="1255" y="1270"/>
      <point x="1347" y="1172" type="curve"/>
      <point x="1431" y="1262" type="line"/>
      <point x="1329" y="1368"/>
      <point x="1169" y="1430"/>
      <point x="953" y="1430" type="curve" smooth="yes"/>
      <point x="495" y="1430"/>
      <point x="153" y="1042"/>
      <point x="153" y="582" type="curve" smooth="yes"/>
      <point x="153" y="214"/>
      <point x="403" y="-30"/>
    </contour>
    <contour>
      <point x="255" y="688" type="line"/>
      <point x="1135" y="688" type="line"/>
      <point x="1159" y="796" type="line"/>
      <point x="279" y="796" type="line"/>
    </contour>
  </outline>
</glyph>
<glyph name="Lje-cy" format="2">
  <advance width="2147"/>
  <unicode hex="0409"/>
  <outline>
    <contour>
      <point x="20" y="-20" type="line"/>
      <point x="288" y="54"/>
      <point x="404" y="172"/>
      <point x="572" y="962" type="curve" smooth="yes"/>
      <point x="642" y="1292" type="line"/>
      <point x="1292" y="1292" type="line"/>
      <point x="1432" y="1400" type="line"/>
      <point x="550" y="1400" type="line"/>
      <point x="458" y="962" type="line" smooth="yes"/>
      <point x="306" y="240"/>
      <point x="224" y="144"/>
      <point x="-20" y="88" type="curve"/>
    </contour>
    <contour>
      <point x="1156" y="108" type="line"/>
      <point x="1280" y="688" type="line"/>
      <point x="1570" y="688" type="line" smooth="yes"/>
      <point x="1806" y="688"/>
      <point x="1916" y="596"/>
      <point x="1914" y="420" type="curve" smooth="yes"/>
      <point x="1912" y="216"/>
      <point x="1770" y="108"/>
      <point x="1524" y="108" type="curve" smooth="yes"/>
    </contour>
    <contour>
      <point x="1018" y="0" type="line"/>
      <point x="1520" y="0" type="line" smooth="yes"/>
      <point x="1826" y="0"/>
      <point x="2026" y="180"/>
      <point x="2028" y="434" type="curve" smooth="yes"/>
      <point x="2030" y="656"/>
      <point x="1862" y="796"/>
      <point x="1584" y="796" type="curve" smooth="yes"/>
      <point x="1302" y="796" type="line"/>
      <point x="1432" y="1400" type="line"/>
      <point x="1314" y="1400" type="line"/>
    </contour>
  </outline>
</glyph>
<glyph name="Nje-cy" format="2">
  <advance width="2109"/>
  <unicode hex="040A"/>
  <outline>
    <contour>
      <point x="980" y="0" type="line"/>
      <point x="1482" y="0" type="line" smooth="yes"/>
      <point x="1788" y="0"/>
      <point x="1988" y="180"/>
      <point x="1990" y="434" type="curve" smooth="yes"/>
      <point x="1992" y="656"/>
      <point x="1824" y="796"/>
      <point x="1546" y="796" type="curve" smooth="yes"/>
      <point x="300" y="796" type="line"/>
      <point x="278" y="688" type="line"/>
      <point x="1532" y="688" type="line" smooth="yes"/>
      <point x="1768" y="688"/>
      <point x="1878" y="596"/>
      <point x="1876" y="420" type="curve" smooth="yes"/>
      <point x="1874" y="216"/>
      <point x="1732" y="108"/>
      <point x="1486" y="108" type="curve" smooth="yes"/>
      <point x="1118" y="108" type="line"/>
      <point x="1394" y="1400" type="line"/>
      <point x="1276" y="1400" type="line"/>
    </contour>
    <contour>
      <point x="100" y="0" type="line"/>
      <point x="216" y="0" type="line"/>
      <point x="512" y="1400" type="line"/>
      <point x="396" y="1400" type="line"/>
    </contour>
  </outline>
</glyph>
<glyph name="Ge-cy" format="2">
  <advance width="1000"/>
  <unicode hex="0413"/>
  <guideline x="219" y="246" angle="78"/>
  <anchor x="486" y="722" name="bar"/>
  <anchor x="216" y="0" name="descender"/>
  <anchor x="760" y="1400" name="top"/>
  <outline>
    <contour>
      <point x="100" y="0" type="line"/>
      <point x="216" y="0" type="line"/>
      <point x="490" y="1292" type="line"/>
      <point x="1102" y="1292" type="line"/>
      <point x="1124" y="1400" type="line"/>
      <point x="396" y="1400" type="line"/>
    </contour>
  </outline>
</glyph>
<glyph name="De-cy" format="2">
  <advance width="1556"/>
  <unicode hex="0414"/>
  <outline>
    <contour>
      <point x="1060" y="0" type="line"/>
      <point x="1176" y="0" type="line"/>
      <point x="1474" y="1400" type="line"/>
      <point x="552" y="1400" type="line"/>
      <point x="458" y="960" type="line" smooth="yes"/>
      <point x="316" y="298"/>
      <point x="224" y="150"/>
      <point x="-36" y="92" type="curve"/>
      <point x="-8" y="8" type="line"/>
      <point x="274" y="74"/>
      <point x="422" y="246"/>
      <point x="574" y="960" type="curve" smooth="yes"/>
      <point x="644" y="1292" type="line"/>
      <point x="1334" y="1292" type="line"/>
    </contour>
    <contour>
      <point x="-134" y="-360" type="line"/>
      <point x="-26" y="-360" type="line"/>
      <point x="52" y="0" type="line"/>
      <point x="1288" y="0" type="line"/>
      <point x="1210" y="-360" type="line"/>
      <point x="1318" y="-360" type="line"/>
      <point x="1418" y="108" type="line"/>
      <point x="148" y="108" type="line"/>
      <point x="72" y="82" type="line"/>
      <point x="-36" y="92" type="line"/>
    </contour>
  </outline>
</glyph>
<glyph name="Ze-cy" format="2">
  <advance width="1184"/>
  <unicode hex="0417"/>
  <anchor x="480" y="0" name="bottom"/>
  <anchor x="714" y="1400" name="top"/>
  <outline>
    <contour>
      <point x="500" y="-30" type="curve" smooth="yes"/>
      <point x="788" y="-30"/>
      <point x="1040" y="152"/>
      <point x="1040" y="416" type="curve" smooth="yes"/>
      <point x="1040" y="554"/>
      <point x="964" y="680"/>
      <point x="818" y="728" type="curve"/>
      <point x="1000" y="766"/>
      <point x="1144" y="916"/>
      <point x="1144" y="1082" type="curve" smooth="yes"/>
      <point x="1144" y="1308"/>
      <point x="948" y="1430"/>
      <point x="700" y="1430" type="curve" smooth="yes"/>
      <point x="544" y="1430"/>
      <point x="374" y="1388"/>
      <point x="270" y="1306" type="curve"/>
      <point x="318" y="1216" type="line"/>
      <point x="418" y="1282"/>
      <point x="554" y="1318"/>
      <point x="684" y="1318" type="curve" smooth="yes"/>
      <point x="860" y="1318"/>
      <point x="1026" y="1252"/>
      <point x="1026" y="1080" type="curve" smooth="yes"/>
      <point x="1026" y="892"/>
      <point x="830" y="778"/>
      <point x="602" y="778" type="curve" smooth="yes"/>
      <point x="334" y="778" type="line"/>
      <point x="312" y="670" type="line"/>
      <point x="616" y="670" type="line" smooth="yes"/>
      <point x="810" y="670"/>
      <point x="926" y="584"/>
      <point x="926" y="420" type="curve" smooth="yes"/>
      <point x="926" y="216"/>
      <point x="742" y="82"/>
      <point x="516" y="82" type="curve" smooth="yes"/>
      <point x="346" y="82"/>
      <point x="188" y="132"/>
      <point x="88" y="254" type="curve"/>
      <point x="12" y="154" type="line"/>
      <point x="130" y="26"/>
      <point x="316" y="-30"/>
    </contour>
  </outline>
</glyph>
<glyph name="U-cy" format="2">
  <advance width="1194"/>
  <unicode hex="0423"/>
  <anchor x="848" y="1400" name="top"/>
  <outline>
    <contour>
      <point x="70" y="-20" type="line"/>
      <point x="318" y="58"/>
      <point x="532" y="236"/>
      <point x="766" y="564" type="curve" smooth="yes"/>
      <point x="1360" y="1400" type="line"/>
      <point x="1214" y="1400" type="line"/>
      <point x="638" y="568" type="line" smooth="yes"/>
      <point x="458" y="310"/>
      <point x="244" y="150"/>
      <point x="34" y="90" type="curve"/>
    </contour>
    <contour>
      <point x="616" y="480" type="line"/>
      <point x="698" y="606" type="line"/>
      <point x="418" y="1400" type="line"/>
      <point x="274" y="1400" type="line"/>
    </contour>
  </outline>
</glyph>
<glyph name="Ereversed-cy" format="2">
  <advance width="1395"/>
  <unicode hex="042D"/>
  <anchor x="470" y="0" name="bottom"/>
  <anchor x="694" y="1400" name="top"/>
  <outline>
    <contour>
      <point x="522" y="-30" type="curve" smooth="yes"/>
      <point x="988" y="-30"/>
      <point x="1324" y="302"/>
      <point x="1324" y="774" type="curve" smooth="yes"/>
      <point x="1324" y="1150"/>
      <point x="1062" y="1430"/>
      <point x="670" y="1430" type="curve" smooth="yes"/>
      <point x="492" y="1430"/>
      <point x="364" y="1394"/>
      <point x="250" y="1328" type="curve"/>
      <point x="302" y="1234" type="line"/>
      <point x="404" y="1294"/>
      <point x="506" y="1320"/>
      <point x="652" y="1320" type="curve" smooth="yes"/>
      <point x="984" y="1320"/>
      <point x="1206" y="1102"/>
      <point x="1206" y="778" type="curve" smooth="yes"/>
      <point x="1206" y="376"/>
      <point x="944" y="82"/>
      <point x="536" y="82" type="curve" smooth="yes"/>
      <point x="380" y="82"/>
      <point x="200" y="134"/>
      <point x="76" y="252" type="curve"/>
      <point x="8" y="160" type="line"/>
      <point x="144" y="28"/>
      <point x="338" y="-30"/>
    </contour>
    <contour>
      <point x="344" y="688" type="line"/>
      <point x="1224" y="688" type="line"/>
      <point x="1246" y="796" type="line"/>
      <point x="366" y="796" type="line"/>
    </contour>
  </outline>
</glyph>
<glyph name="be-cy" format="2">
  <advance width="1175"/>
  <unicode hex="0431"/>
  <outline>
    <contour>
      <point x="563" y="-30" type="curve" smooth="yes"/>
      <point x="847" y="-30"/>
      <point x="1093" y="234"/>
      <point x="1095" y="534" type="curve" smooth="yes"/>
      <point x="1097" y="810"/>
      <point x="913" y="990"/>
      <point x="679" y="990" type="curve" smooth="yes"/>
      <point x="531" y="990"/>
      <point x="379" y="920"/>
      <point x="267" y="776" type="curve"/>
      <point x="357" y="1112"/>
      <point x="499" y="1206"/>
      <point x="729" y="1256" type="curve" smooth="yes"/>
      <point x="1181" y="1358" type="line"/>
      <point x="1185" y="1470" type="line"/>
      <point x="707" y="1368" type="line" smooth="yes"/>
      <point x="399" y="1302"/>
      <point x="233" y="1098"/>
      <point x="155" y="782" type="curve" smooth="yes"/>
      <point x="49" y="344"/>
      <point x="159" y="-30"/>
    </contour>
    <contour>
      <point x="579" y="78" type="curve" smooth="yes"/>
      <point x="379" y="78"/>
      <point x="251" y="212"/>
      <point x="253" y="436" type="curve" smooth="yes"/>
      <point x="255" y="692"/>
      <point x="419" y="882"/>
      <point x="643" y="882" type="curve" smooth="yes"/>
      <point x="841" y="882"/>
      <point x="975" y="750"/>
      <point x="973" y="530" type="curve" smooth="yes"/>
      <point x="971" y="290"/>
      <point x="813" y="78"/>
    </contour>
  </outline>
</glyph>
<glyph name="ge-cy" format="2">
  <advance width="830"/>
  <unicode hex="0433"/>
  <anchor x="344" y="486" name="bar"/>
  <anchor x="180" y="0" name="descender"/>
  <anchor x="574" y="960" name="top"/>
  <outline>
    <contour>
      <point x="70" y="0" type="line"/>
      <point x="182" y="0" type="line"/>
      <point x="362" y="856" type="line"/>
      <point x="852" y="856" type="line"/>
      <point x="874" y="960" type="line"/>
      <point x="272" y="960" type="line"/>
    </contour>
  </outline>
</glyph>
<glyph name="ze-cy" format="2">
  <advance width="991"/>
  <unicode hex="0437"/>
  <anchor x="375" y="0" name="bottom"/>
  <anchor x="567" y="960" name="top"/>
  <outline>
    <contour>
      <point x="419" y="-20" type="curve" smooth="yes"/>
      <point x="653" y="-20"/>
      <point x="853" y="86"/>
      <point x="853" y="284" type="curve" smooth="yes"/>
      <point x="853" y="382"/>
      <point x="787" y="458"/>
      <point x="663" y="498" type="curve"/>
      <point x="817" y="518"/>
      <point x="911" y="626"/>
      <point x="911" y="738" type="curve" smooth="yes"/>
      <point x="911" y="918"/>
      <point x="719" y="990"/>
      <point x="527" y="990" type="curve" smooth="yes"/>
      <point x="391" y="990"/>
      <point x="259" y="958"/>
      <point x="175" y="898" type="curve"/>
      <point x="213" y="806" type="line"/>
      <point x="303" y="862"/>
      <point x="411" y="886"/>
      <point x="527" y="886" type="curve" smooth="yes"/>
      <point x="657" y="886"/>
      <point x="797" y="846"/>
      <point x="797" y="730" type="curve" smooth="yes"/>
      <point x="797" y="588"/>
      <point x="661" y="562"/>
      <point x="433" y="562" type="curve" smooth="yes"/>
      <point x="257" y="562" type="line"/>
      <point x="235" y="458" type="line"/>
      <point x="413" y="458" type="line" smooth="yes"/>
      <point x="625" y="458"/>
      <point x="741" y="402"/>
      <point x="741" y="278" type="curve" smooth="yes"/>
      <point x="741" y="148"/>
      <point x="613" y="84"/>
      <point x="439" y="84" type="curve" smooth="yes"/>
      <point x="309" y="84"/>
      <point x="177" y="118"/>
      <point x="89" y="202" type="curve"/>
      <point x="7" y="116" type="line"/>
      <point x="109" y="22"/>
      <point x="265" y="-20"/>
    </contour>
  </outline>
</glyph>
<glyph name="el-cy" format="2">
  <advance width="1174"/>
  <unicode hex="043B"/>
  <outline>
    <contour>
      <point x="24" y="-10" type="line"/>
      <point x="246" y="64"/>
      <point x="342" y="232"/>
      <point x="434" y="664" type="curve" smooth="yes"/>
      <point x="474" y="856" type="line"/>
      <point x="970" y="856" type="line"/>
      <point x="790" y="0" type="line"/>
      <point x="902" y="0" type="line"/>
      <point x="1104" y="960" type="line"/>
      <point x="384" y="960" type="line"/>
      <point x="322" y="664" type="line" smooth="yes"/>
      <point x="244" y="290"/>
      <point x="190" y="150"/>
      <point x="-20" y="98" type="curve"/>
    </contour>
  </outline>
</glyph>
<glyph name="che-cy" format="2">
  <advance width="1057"/>
  <unicode hex="0447"/>
  <guideline x="298" y="480" angle="0"/>
  <anchor x="489" y="450" name="center"/>
  <anchor x="785" y="0" name="descender"/>
  <anchor x="673" y="0" name="descender_alt"/>
  <anchor x="597" y="960" name="top"/>
  <outline>
    <contour>
      <point x="673" y="0" type="line"/>
      <point x="785" y="0" type="line"/>
      <point x="989" y="960" type="line"/>
      <point x="877" y="960" type="line"/>
      <point x="783" y="518" type="line"/>
      <point x="687" y="496"/>
      <point x="607" y="488"/>
      <point x="515" y="488" type="curve" smooth="yes"/>
      <point x="313" y="488"/>
      <point x="227" y="560"/>
      <point x="267" y="740" type="curve" smooth="yes"/>
      <point x="315" y="960" type="line"/>
      <point x="203" y="960" type="line"/>
      <point x="153" y="722" type="line" smooth="yes"/>
      <point x="103" y="480"/>
      <point x="225" y="380"/>
      <point x="489" y="380" type="curve" smooth="yes"/>
      <point x="591" y="380"/>
      <point x="677" y="396"/>
      <point x="763" y="420" type="curve"/>
    </contour>
  </outline>
</glyph>
<glyph name="sha-cy" format="2">
  <advance width="1708"/>
  <unicode hex="0448"/>
  <anchor x="1436" y="0" name="descender"/>
  <outline>
    <contour>
      <point x="68" y="0" type="line"/>
      <point x="1436" y="0" type="line"/>
      <point x="1640" y="960" type="line"/>
      <point x="1528" y="960" type="line"/>
      <point x="1346" y="104" type="line"/>
      <point x="830" y="104" type="line"/>
      <point x="1012" y="960" type="line"/>
      <point x="900" y="960" type="line"/>
      <point x="718" y="104" type="line"/>
      <point x="202" y="104" type="line"/>
      <point x="384" y="960" type="line"/>
      <point x="272" y="960" type="line"/>
    </contour>
  </outline>
</glyph>
<glyph name="hardsign-cy" format="2">
  <advance width="1198"/>
  <unicode hex="044A"/>
  <guideline x="265" y="480" angle="180"/>
  <anchor x="530" y="960" name="top"/>
  <outline>
    <contour>
      <point x="270" y="0" type="line"/>
      <point x="690" y="0" type="line" smooth="yes"/>
      <point x="908" y="0"/>
      <point x="1082" y="126"/>
      <point x="1082" y="324" type="curve" smooth="yes"/>
      <point x="1082" y="514"/>
      <point x="958" y="616"/>
      <point x="744" y="616" type="curve" smooth="yes"/>
      <point x="486" y="616" type="line"/>
      <point x="462" y="512" type="line"/>
      <point x="732" y="512" type="line" smooth="yes"/>
      <point x="892" y="512"/>
      <point x="962" y="450"/>
      <point x="962" y="324" type="curve" smooth="yes"/>
      <point x="962" y="190"/>
      <point x="860" y="106"/>
      <point x="696" y="106" type="curve" smooth="yes"/>
      <point x="404" y="106" type="line"/>
      <point x="586" y="960" type="line"/>
      <point x="474" y="960" type="line"/>
    </contour>
    <contour>
      <point x="132" y="856" type="line"/>
      <point x="452" y="856" type="line"/>
      <point x="586" y="960" type="line"/>
      <point x="154" y="960" type="line"/>
    </contour>
  </outline>
</glyph>
<glyph name="yeru-cy" format="2">
  <advance width="1350"/>
  <unicode hex="044B"/>
  <anchor x="576" y="0" name="bottom"/>
  <anchor x="778" y="960" name="top"/>
  <outline>
    <contour>
      <point x="68" y="0" type="line"/>
      <point x="478" y="0" type="line" smooth="yes"/>
      <point x="696" y="0"/>
      <point x="870" y="126"/>
      <point x="870" y="324" type="curve" smooth="yes"/>
      <point x="870" y="514"/>
      <point x="746" y="616"/>
      <point x="532" y="616" type="curve" smooth="yes"/>
      <point x="284" y="616" type="line"/>
      <point x="260" y="512" type="line"/>
      <point x="520" y="512" type="line" smooth="yes"/>
      <point x="680" y="512"/>
      <point x="750" y="450"/>
      <point x="750" y="324" type="curve" smooth="yes"/>
      <point x="750" y="190"/>
      <point x="648" y="106"/>
      <point x="484" y="106" type="curve" smooth="yes"/>
      <point x="202" y="106" type="line"/>
      <point x="384" y="960" type="line"/>
      <point x="272" y="960" type="line"/>
    </contour>
    <contour>
      <point x="966" y="0" type="line"/>
      <point x="1078" y="0" type="line"/>
      <point x="1282" y="960" type="line"/>
      <point x="1170" y="960" type="line"/>
    </contour>
  </outline>
</glyph>
<glyph name="softsign-cy" format="2">
  <advance width="996"/>
  <unicode hex="044C"/>
  <outline>
    <contour>
      <point x="68" y="0" type="line"/>
      <point x="488" y="0" type="line" smooth="yes"/>
      <point x="706" y="0"/>
      <point x="880" y="126"/>
      <point x="880" y="324" type="curve" smooth="yes"/>
      <point x="880" y="514"/>
      <point x="756" y="616"/>
      <point x="542" y="616" type="curve" smooth="yes"/>
      <point x="284" y="616" type="line"/>
      <point x="260" y="512" type="line"/>
      <point x="530" y="512" type="line" smooth="yes"/>
      <point x="690" y="512"/>
      <point x="760" y="450"/>
      <point x="760" y="324" type="curve" smooth="yes"/>
      <point x="760" y="190"/>
      <point x="658" y="106"/>
      <point x="494" y="106" type="curve" smooth="yes"/>
      <point x="202" y="106" type="line"/>
      <point x="384" y="960" type="line"/>
      <point x="272" y="960" type="line"/>
    </contour>
  </outline>
</glyph>
<glyph name="ereversed-cy" format="2">
  <advance width="1010"/>
  <unicode hex="044D"/>
  <anchor x="332" y="0" name="bottom"/>
  <anchor x="532" y="960" name="top"/>
  <outline>
    <contour>
      <point x="390" y="-30" type="curve" smooth="yes"/>
      <point x="708" y="-30"/>
      <point x="930" y="240"/>
      <point x="930" y="548" type="curve" smooth="yes"/>
      <point x="930" y="822"/>
      <point x="754" y="990"/>
      <point x="496" y="990" type="curve" smooth="yes"/>
      <point x="378" y="990"/>
      <point x="240" y="948"/>
      <point x="164" y="896" type="curve"/>
      <point x="204" y="806" type="line"/>
      <point x="278" y="852"/>
      <point x="376" y="884"/>
      <point x="474" y="884" type="curve" smooth="yes"/>
      <point x="686" y="884"/>
      <point x="812" y="760"/>
      <point x="812" y="546" type="curve" smooth="yes"/>
      <point x="812" y="304"/>
      <point x="658" y="78"/>
      <point x="402" y="78" type="curve" smooth="yes"/>
      <point x="284" y="78"/>
      <point x="156" y="122"/>
      <point x="78" y="198" type="curve"/>
      <point x="-4" y="112" type="line"/>
      <point x="86" y="18"/>
      <point x="250" y="-30"/>
    </contour>
    <contour>
      <point x="196" y="440" type="line"/>
      <point x="816" y="440" type="line"/>
      <point x="838" y="544" type="line"/>
      <point x="218" y="544" type="line"/>
    </contour>
  </outline>
</glyph>
<glyph name="iu-cy" format="2">
  <advance width="1650"/>
  <unicode hex="044E"/>
  <guideline x="461" y="375" angle="161.9898"/>
  <anchor x="966" y="960" name="top"/>
  <outline>
    <contour>
      <point x="68" y="0" type="line"/>
      <point x="180" y="0" type="line"/>
      <point x="278" y="460" type="line"/>
      <point x="620" y="460" type="line"/>
      <point x="642" y="564" type="line"/>
      <point x="300" y="564" type="line"/>
      <point x="384" y="960" type="line"/>
      <point x="272" y="960" type="line"/>
    </contour>
    <contour>
      <point x="1006" y="-30" type="curve" smooth="yes"/>
      <point x="1310" y="-30"/>
      <point x="1570" y="232"/>
      <point x="1570" y="538" type="curve" smooth="yes"/>
      <point x="1570" y="786"/>
      <point x="1388" y="990"/>
      <point x="1110" y="990" type="curve" smooth="yes"/>
      <point x="808" y="990"/>
      <point x="546" y="728"/>
      <point x="546" y="424" type="curve" smooth="yes"/>
      <point x="546" y="172"/>
      <point x="728" y="-30"/>
    </contour>
    <contour>
      <point x="1020" y="78" type="curve" smooth="yes"/>
      <point x="804" y="78"/>
      <point x="666" y="210"/>
      <point x="666" y="420" type="curve" smooth="yes"/>
      <point x="666" y="672"/>
      <point x="838" y="882"/>
      <point x="1096" y="882" type="curve" smooth="yes"/>
      <point x="1310" y="882"/>
      <point x="1450" y="750"/>
      <point x="1450" y="540" type="curve" smooth="yes"/>
      <point x="1450" y="288"/>
      <point x="1278" y="78"/>
    </contour>
  </outline>
</glyph>
<glyph name="e-cy" format="2">
  <advance width="1052"/>
  <unicode hex="0454"/>
  <outline>
    <contour>
      <point x="570" y="-30" type="curve" smooth="yes"/>
      <point x="682" y="-30"/>
      <point x="790" y="4"/>
      <point x="890" y="68" type="curve"/>
      <point x="826" y="162" type="line"/>
      <point x="772" y="114"/>
      <point x="684" y="78"/>
      <point x="584" y="78" type="curve" smooth="yes"/>
      <point x="372" y="78"/>
      <point x="204" y="208"/>
      <point x="204" y="442" type="curve" smooth="yes"/>
      <point x="204" y="686"/>
      <point x="376" y="882"/>
      <point x="646" y="882" type="curve" smooth="yes"/>
      <point x="740" y="882"/>
      <point x="854" y="856"/>
      <point x="920" y="794" type="curve"/>
      <point x="1006" y="880" type="line"/>
      <point x="918" y="958"/>
      <point x="808" y="990"/>
      <point x="678" y="990" type="curve" smooth="yes"/>
      <point x="348" y="990"/>
      <point x="84" y="758"/>
      <point x="84" y="442" type="curve" smooth="yes"/>
      <point x="84" y="162"/>
      <point x="290" y="-30"/>
    </contour>
    <contour>
      <point x="174" y="440" type="line"/>
      <point x="808" y="440" type="line"/>
      <point x="830" y="544" type="line"/>
      <point x="196" y="544" type="line"/>
    </contour>
  </outline>
</glyph>
<glyph name="lje-cy" format="2">
  <advance width="1686"/>
  <unicode hex="0459"/>
  <outline>
    <contour>
      <point x="34" y="-10" type="line"/>
      <point x="256" y="64"/>
      <point x="352" y="232"/>
      <point x="444" y="664" type="curve" smooth="yes"/>
      <point x="484" y="856" type="line"/>
      <point x="940" y="856" type="line"/>
      <point x="1074" y="960" type="line"/>
      <point x="394" y="960" type="line"/>
      <point x="332" y="664" type="line" smooth="yes"/>
      <point x="256" y="288"/>
      <point x="200" y="150"/>
      <point x="-10" y="98" type="curve"/>
    </contour>
    <contour>
      <point x="758" y="0" type="line"/>
      <point x="1178" y="0" type="line" smooth="yes"/>
      <point x="1396" y="0"/>
      <point x="1570" y="126"/>
      <point x="1570" y="324" type="curve" smooth="yes"/>
      <point x="1570" y="514"/>
      <point x="1446" y="616"/>
      <point x="1232" y="616" type="curve" smooth="yes"/>
      <point x="974" y="616" type="line"/>
      <point x="950" y="512" type="line"/>
      <point x="1220" y="512" type="line" smooth="yes"/>
      <point x="1380" y="512"/>
      <point x="1450" y="450"/>
      <point x="1450" y="324" type="curve" smooth="yes"/>
      <point x="1450" y="190"/>
      <point x="1348" y="106"/>
      <point x="1184" y="106" type="curve" smooth="yes"/>
      <point x="892" y="106" type="line"/>
      <point x="1074" y="960" type="line"/>
      <point x="962" y="960" type="line"/>
    </contour>
  </outline>
</glyph>
<glyph name="Yat-cy" format="2">
  <advance width="1329"/>
  <unicode hex="0462"/>
  <outline>
    <contour>
      <point x="200" y="0" type="line"/>
      <point x="702" y="0" type="line" smooth="yes"/>
      <point x="1008" y="0"/>
      <point x="1208" y="180"/>
      <point x="1210" y="434" type="curve" smooth="yes"/>
      <point x="1212" y="656"/>
      <point x="1044" y="796"/>
      <point x="766" y="796" type="curve" smooth="yes"/>
      <point x="456" y="796" type="line"/>
      <point x="434" y="688" type="line"/>
      <point x="752" y="688" type="line" smooth="yes"/>
      <point x="988" y="688"/>
      <point x="1098" y="596"/>
      <point x="1096" y="420" type="curve" smooth="yes"/>
      <point x="1094" y="216"/>
      <point x="952" y="108"/>
      <point x="706" y="108" type="curve" smooth="yes"/>
      <point x="338" y="108" type="line"/>
      <point x="622" y="1440" type="line"/>
      <point x="504" y="1440" type="line"/>
    </contour>
    <contour>
      <point x="68" y="1046" type="line"/>
      <point x="892" y="1046" type="line"/>
      <point x="912" y="1134" type="line"/>
      <point x="88" y="1134" type="line"/>
    </contour>
  </outline>
</glyph>
<glyph name="yat-cy" format="2">
  <advance width="1196"/>
  <unicode hex="0463"/>
  <outline>
    <contour>
      <point x="268" y="0" type="line"/>
      <point x="688" y="0" type="line" smooth="yes"/>
      <point x="906" y="0"/>
      <point x="1080" y="126"/>
      <point x="1080" y="324" type="curve" smooth="yes"/>
      <point x="1080" y="514"/>
      <point x="956" y="616"/>
      <point x="742" y="616" type="curve" smooth="yes"/>
      <point x="484" y="616" type="line"/>
      <point x="460" y="512" type="line"/>
      <point x="730" y="512" type="line" smooth="yes"/>
      <point x="890" y="512"/>
      <point x="960" y="450"/>
      <point x="960" y="324" type="curve" smooth="yes"/>
      <point x="960" y="190"/>
      <point x="858" y="106"/>
      <point x="694" y="106" type="curve" smooth="yes"/>
      <point x="402" y="106" type="line"/>
      <point x="686" y="1440" type="line"/>
      <point x="574" y="1440" type="line"/>
    </contour>
    <contour>
      <point x="132" y="856" type="line"/>
      <point x="880" y="856" type="line"/>
      <point x="902" y="960" type="line"/>
      <point x="154" y="960" type="line"/>
    </contour>
  </outline>
</glyph>
<glyph name="yusbig-cy" format="2">
  <advance width="1466"/>
  <unicode hex="046B"/>
  <guideline x="129" y="431" angle="78.6901"/>
  <anchor x="1224" y="0" name="descender"/>
  <outline>
    <contour>
      <point x="-42" y="0" type="line"/>
      <point x="96" y="0" type="line"/>
      <point x="496" y="498" type="line"/>
      <point x="360" y="856" type="line"/>
      <point x="1256" y="856" type="line"/>
      <point x="980" y="498" type="line"/>
      <point x="1170" y="0" type="line"/>
      <point x="1304" y="0" type="line"/>
      <point x="1098" y="496" type="line"/>
      <point x="1388" y="862" type="line"/>
      <point x="1408" y="960" type="line"/>
      <point x="258" y="960" type="line"/>
      <point x="238" y="862" type="line"/>
      <point x="374" y="504" type="line"/>
    </contour>
    <contour>
      <point x="576" y="0" type="line"/>
      <point x="688" y="0" type="line"/>
      <point x="782" y="460" type="line"/>
      <point x="1040" y="460" type="line"/>
      <point x="1064" y="564" type="line"/>
      <point x="438" y="564" type="line"/>
      <point x="414" y="460" type="line"/>
      <point x="670" y="460" type="line"/>
    </contour>
  </outline>
</glyph>
<glyph name="Fita-cy" format="2">
  <advance width="1696"/>
  <unicode hex="0472"/>
  <anchor x="782" y="0" name="bottom"/>
  <anchor x="1408" y="1400" name="horn"/>
  <anchor x="994" y="0" name="ogonek"/>
  <anchor x="1006" y="1400" name="top"/>
  <anchor x="346" y="1400" name="topleft"/>
  <outline>
    <contour>
      <point x="226" y="608" type="line"/>
      <point x="358" y="694"/>
      <point x="472" y="722"/>
      <point x="580" y="722" type="curve" smooth="yes"/>
      <point x="794" y="722"/>
      <point x="978" y="610"/>
      <point x="1190" y="610" type="curve" smooth="yes"/>
      <point x="1300" y="610"/>
      <point x="1416" y="640"/>
      <point x="1550" y="728" type="curve"/>
      <point x="1572" y="836" type="line"/>
      <point x="1446" y="750"/>
      <point x="1334" y="722"/>
      <point x="1228" y="722" type="curve" smooth="yes"/>
      <point x="1020" y="722"/>
      <point x="836" y="834"/>
      <point x="620" y="834" type="curve" smooth="yes"/>
      <point x="508" y="834"/>
      <point x="388" y="804"/>
      <point x="248" y="716" type="curve"/>
    </contour>
    <component base="O"/>
  </outline>
</glyph>
<glyph name="ghemiddlehook-cy" format="2">
  <advance width="1070"/>
  <unicode hex="0495"/>
  <anchor x="344" y="486" name="bar"/>
  <anchor x="180" y="0" name="descender"/>
  <anchor x="574" y="960" name="top"/>
  <outline>
    <contour>
      <point x="482" y="-194" type="line"/>
      <point x="724" y="-138"/>
      <point x="894" y="52"/>
      <point x="894" y="260" type="curve" smooth="yes"/>
      <point x="894" y="482"/>
      <point x="716" y="586"/>
      <point x="498" y="586" type="curve" smooth="yes"/>
      <point x="406" y="586"/>
      <point x="306" y="568"/>
      <point x="210" y="536" type="curve"/>
      <point x="192" y="440" type="line"/>
      <point x="292" y="474"/>
      <point x="382" y="488"/>
      <point x="468" y="488" type="curve" smooth="yes"/>
      <point x="666" y="488"/>
      <point x="782" y="400"/>
      <point x="782" y="246" type="curve" smooth="yes"/>
      <point x="782" y="88"/>
      <point x="644" y="-60"/>
      <point x="446" y="-108" type="curve"/>
    </contour>
    <component base="ge-cy"/>
  </outline>
</glyph>
<glyph name="Obarred-cy" format="2">
  <advance width="1696"/>
  <unicode hex="04E8"/>
  <anchor x="782" y="0" name="bottom"/>
  <anchor x="1408" y="1400" name="horn"/>
  <anchor x="994" y="0" name="ogonek"/>
  <anchor x="1006" y="1400" name="top"/>
  <anchor x="346" y="1400" name="topleft"/>
  <outline>
    <contour>
      <point x="238" y="668" type="line"/>
      <point x="1536" y="668" type="line"/>
      <point x="1560" y="776" type="line"/>
      <point x="262" y="776" type="line"/>
    </contour>
    <component base="O"/>
  </outline>
</glyph>
<glyph name="endash" format="2">
  <advance width="1000"/>
  <unicode hex="2013"/>
  <outline>
    <contour>
      <point x="67" y="514" type="line"/>
      <point x="947" y="514" type="line"/>
      <point x="967" y="606" type="line"/>
      <point x="87" y="606" type="line"/>
    </contour>
  </outline>
</glyph>
<glyph name="emdash" format="2">
  <advance width="1682"/>
  <unicode hex="2014"/>
  <outline>
    <contour>
      <point x="88" y="514" type="line"/>
      <point x="1608" y="514" type="line"/>
      <point x="1628" y="606" type="line"/>
      <point x="108" y="606" type="line"/>
    </contour>
  </outline>
</glyph>
<glyph name="dagger" format="2">
  <advance width="1210"/>
  <unicode hex="2020"/>
  <outline>
    <contour>
      <point x="450" y="-12" type="line"/>
      <point x="550" y="-12" type="line"/>
      <point x="780" y="1066" type="line"/>
      <point x="1198" y="1066" type="line"/>
      <point x="1218" y="1164" type="line"/>
      <point x="800" y="1164" type="line"/>
      <point x="894" y="1600" type="line"/>
      <point x="794" y="1600" type="line"/>
      <point x="700" y="1164" type="line"/>
      <point x="282" y="1164" type="line"/>
      <point x="262" y="1066" type="line"/>
      <point x="680" y="1066" type="line"/>
    </contour>
  </outline>
</glyph>
<glyph name="bullet" format="2">
  <advance width="1048"/>
  <unicode hex="2022"/>
  <outline>
    <contour>
      <point x="538" y="396" type="curve" smooth="yes"/>
      <point x="720" y="396"/>
      <point x="870" y="540"/>
      <point x="870" y="720" type="curve" smooth="yes"/>
      <point x="870" y="870"/>
      <point x="762" y="980"/>
      <point x="598" y="980" type="curve" smooth="yes"/>
      <point x="418" y="980"/>
      <point x="266" y="842"/>
      <point x="266" y="654" type="curve" smooth="yes"/>
      <point x="266" y="506"/>
      <point x="376" y="396"/>
    </contour>
  </outline>
</glyph>
<glyph name="minute" format="2">
  <advance width="420"/>
  <unicode hex="2032"/>
  <outline>
    <contour>
      <point x="208" y="912" type="line"/>
      <point x="298" y="912" type="line"/>
      <point x="522" y="1440" type="line"/>
      <point x="408" y="1440" type="line"/>
    </contour>
  </outline>
</glyph>
<glyph name="guilsinglleft" format="2">
  <advance width="574"/>
  <unicode hex="2039"/>
  <guideline x="333" y="106" angle="34.4589"/>
  <guideline x="477" y="882" angle="132.9161"/>
  <outline>
    <contour>
      <point x="330" y="110" type="line"/>
      <point x="405" y="162" type="line"/>
      <point x="186" y="492" type="line"/>
      <point x="538" y="825" type="line"/>
      <point x="481" y="886" type="line"/>
      <point x="64" y="498" type="line"/>
    </contour>
  </outline>
</glyph>
<glyph name="fraction" format="2">
  <advance width="388"/>
  <unicode hex="2044"/>
  <guideline x="-134" y="-15" angle="322.3219"/>
  <guideline x="377" y="715" angle="322.3219"/>
  <outline>
    <contour>
      <point x="-268" y="-30" type="line"/>
      <point x="816" y="1382" type="line"/>
      <point x="754" y="1430" type="line"/>
      <point x="-334" y="20" type="line"/>
    </contour>
  </outline>
</glyph>
<glyph name="foursuperior" format="2">
  <advance width="846"/>
  <unicode hex="2074"/>
  <outline>
    <contour>
      <point x="580" y="722" type="line"/>
      <point x="676" y="722" type="line"/>
      <point x="718" y="918" type="line"/>
      <point x="872" y="918" type="line"/>
      <point x="892" y="1010" type="line"/>
      <point x="736" y="1010" type="line"/>
      <point x="782" y="1226" type="line"/>
      <point x="686" y="1226" type="line"/>
      <point x="640" y="1010" type="line"/>
      <point x="278" y="1010" type="line"/>
      <point x="768" y="1632" type="line"/>
      <point x="652" y="1632" type="line"/>
      <point x="158" y="1002" type="line"/>
      <point x="142" y="918" type="line"/>
      <point x="622" y="918" type="line"/>
    </contour>
  </outline>
</glyph>
<glyph name="euro" format="2">
  <advance width="1298"/>
  <unicode hex="20AC"/>
  <outline>
    <contour>
      <point x="784" y="-30" type="curve" smooth="yes"/>
      <point x="920" y="-30"/>
      <point x="1044" y="8"/>
      <point x="1162" y="92" type="curve"/>
      <point x="1136" y="194" type="line"/>
      <point x="1034" y="114"/>
      <point x="924" y="82"/>
      <point x="812" y="82" type="curve" smooth="yes"/>
      <point x="554" y="82"/>
      <point x="390" y="234"/>
      <point x="372" y="496" type="curve"/>
      <point x="884" y="496" type="line"/>
      <point x="906" y="596" type="line"/>
      <point x="370" y="596" type="line"/>
      <point x="376" y="672"/>
      <point x="380" y="728"/>
      <point x="400" y="804" type="curve"/>
      <point x="950" y="804" type="line"/>
      <point x="972" y="904" type="line"/>
      <point x="432" y="904" type="line"/>
      <point x="530" y="1164"/>
      <point x="716" y="1320"/>
      <point x="946" y="1320" type="curve" smooth="yes"/>
      <point x="1090" y="1320"/>
      <point x="1194" y="1264"/>
      <point x="1264" y="1168" type="curve"/>
      <point x="1336" y="1258" type="line"/>
      <point x="1254" y="1368"/>
      <point x="1128" y="1430"/>
      <point x="960" y="1430" type="curve" smooth="yes"/>
      <point x="688" y="1430"/>
      <point x="454" y="1216"/>
      <point x="334" y="904" type="curve"/>
      <point x="152" y="904" type="line"/>
      <point x="130" y="804" type="line"/>
      <point x="302" y="804" type="line"/>
      <point x="284" y="738"/>
      <point x="274" y="672"/>
      <point x="270" y="596" type="curve"/>
      <point x="86" y="596" type="line"/>
      <point x="64" y="496" type="line"/>
      <point x="268" y="496" type="line"/>
      <point x="274" y="180"/>
      <point x="472" y="-30"/>
    </contour>
  </outline>
</glyph>
<glyph name="peso" format="2">
  <advance width="1298"/>
  <unicode hex="20B1"/>
  <outline>
    <contour>
      <point x="162" y="0" type="line"/>
      <point x="276" y="0" type="line"/>
      <point x="378" y="486" type="line"/>
      <point x="654" y="486" type="line" smooth="yes"/>
      <point x="992" y="486"/>
      <point x="1212" y="680"/>
      <point x="1212" y="1002" type="curve" smooth="yes"/>
      <point x="1212" y="1238"/>
      <point x="1046" y="1400"/>
      <point x="810" y="1400" type="curve" smooth="yes"/>
      <point x="458" y="1400" type="line"/>
    </contour>
    <contour>
      <point x="400" y="590" type="line"/>
      <point x="550" y="1296" type="line"/>
      <point x="798" y="1296" type="line" smooth="yes"/>
      <point x="980" y="1296"/>
      <point x="1094" y="1168"/>
      <point x="1094" y="990" type="curve" smooth="yes"/>
      <point x="1094" y="750"/>
      <point x="944" y="590"/>
      <point x="686" y="590" type="curve" smooth="yes"/>
    </contour>
    <contour>
      <point x="194" y="1046" type="line"/>
      <point x="1386" y="1046" type="line"/>
      <point x="1406" y="1146" type="line"/>
      <point x="214" y="1146" type="line"/>
    </contour>
    <contour>
      <point x="128" y="738" type="line"/>
      <point x="1320" y="738" type="line"/>
      <point x="1342" y="838" type="line"/>
      <point x="150" y="838" type="line"/>
    </contour>
  </outline>
</glyph>
<glyph name="minus" format="2">
  <advance width="1298"/>
  <unicode hex="2212"/>
  <outline>
    <contour>
      <point x="210" y="616" type="line"/>
      <point x="1146" y="616" type="line"/>
      <point x="1166" y="712" type="line"/>
      <point x="230" y="712" type="line"/>
    </contour>
  </outline>
</glyph>
<glyph name="divisionslash" format="2">
  <advance width="1298"/>
  <unicode hex="2215"/>
  <guideline x="602" y="715" angle="322.3219"/>
  <guideline x="91" y="-15" angle="322.3219"/>
  <outline>
    <contour>
      <point x="187" y="-30" type="line"/>
      <point x="1271" y="1382" type="line"/>
      <point x="1209" y="1430" type="line"/>
      <point x="121" y="20" type="line"/>
    </contour>
  </outline>
</glyph>
<glyph name="notequal" format="2">
  <advance width="1298"/>
  <unicode hex="2260"/>
  <guideline x="211" y="67" angle="324.2371"/>
  <guideline x="481" y="599" angle="324.2371"/>
  <outline>
    <contour>
      <point x="382" y="158" type="line"/>
      <point x="1076" y="1120" type="line"/>
      <point x="1002" y="1174" type="line"/>
      <point x="308" y="212" type="line"/>
    </contour>
    <contour>
      <point x="246" y="780" type="line"/>
      <point x="1182" y="780" type="line"/>
      <point x="1202" y="876" type="line"/>
      <point x="266" y="876" type="line"/>
    </contour>
    <contour>
      <point x="174" y="452" type="line"/>
      <point x="1110" y="452" type="line"/>
      <point x="1130" y="548" type="line"/>
      <point x="194" y="548" type="line"/>
    </contour>
  </outline>
</glyph>
<glyph name="lozenge" format="2">
  <advance width="1298"/>
  <unicode hex="25CA"/>
  <guideline x="351" y="649" angle="124.6611"/>
  <outline>
    <contour>
      <point x="482" y="0" type="line"/>
      <point x="612" y="0" type="line"/>
      <point x="1222" y="700" type="line"/>
      <point x="904" y="1400" type="line"/>
      <point x="776" y="1400" type="line"/>
      <point x="168" y="702" type="line"/>
    </contour>
    <contour>
      <point x="558" y="90" type="line"/>
      <point x="296" y="694" type="line"/>
      <point x="826" y="1308" type="line"/>
      <point x="1096" y="708" type="line"/>
    </contour>
  </outline>
</glyph>
<glyph name="leftanglebracket-math" format="2">
  <advance width="1298"/>
  <unicode hex="27E8"/>
  <guideline x="529" y="814" angle="55.5267"/>
  <outline>
    <contour>
      <point x="832" y="-440" type="line"/>
      <point x="862" y="-288" type="line"/>
      <point x="404" y="658" type="line"/>
      <point x="1266" y="1602" type="line"/>
      <point x="1300" y="1768" type="line"/>
      <point x="294" y="664" type="line"/>
    </contour>
  </outline>
</glyph>
<glyph name="De-cy.loclBGR" format="2">
  <advance width="1582"/>
  <outline>
    <contour>
      <point x="68" y="0" type="line"/>
      <point x="200" y="0" type="line"/>
      <point x="940" y="1226" type="line"/>
      <point x="1194" y="0" type="line"/>
      <point x="1320" y="0" type="line"/>
      <point x="1026" y="1400" type="line"/>
      <point x="926" y="1400" type="line"/>
    </contour>
    <contour>
      <point x="-114" y="-360" type="line"/>
      <point x="-6" y="-360" type="line"/>
      <point x="72" y="0" type="line"/>
      <point x="1308" y="0" type="line"/>
      <point x="1230" y="-360" type="line"/>
      <point x="1338" y="-360" type="line"/>
      <point x="1438" y="108" type="line"/>
      <point x="-14" y="108" type="line"/>
    </contour>
  </outline>
</glyph>
<glyph name="_part.C" format="2">
  <advance width="844"/>
  <anchor x="454" y="392" name="_center"/>
  <anchor x="454" y="0" name="bottom"/>
  <anchor x="454" y="784" name="top"/>
  <outline>
    <contour>
      <point x="478" y="-16" type="curve" smooth="yes"/>
      <point x="598" y="-16"/>
      <point x="694" y="14"/>
      <point x="774" y="74" type="curve"/>
      <point x="726" y="162" type="line"/>
      <point x="654" y="104"/>
      <point x="572" y="84"/>
      <point x="494" y="84" type="curve" smooth="yes"/>
      <point x="294" y="84"/>
      <point x="168" y="198"/>
      <point x="168" y="392" type="curve" smooth="yes"/>
      <point x="168" y="582"/>
      <point x="294" y="700"/>
      <point x="486" y="700" type="curve" smooth="yes"/>
      <point x="570" y="700"/>
      <point x="640" y="678"/>
      <point x="694" y="632" type="curve"/>
      <point x="750" y="718" type="line"/>
      <point x="686" y="770"/>
      <point x="598" y="800"/>
      <point x="478" y="800" type="curve" smooth="yes"/>
      <point x="234" y="800"/>
      <point x="60" y="628"/>
      <point x="60" y="392" type="curve" smooth="yes"/>
      <point x="60" y="146"/>
      <point x="226" y="-16"/>
    </contour>
  </outline>
</glyph>
<glyph name="_part.cy-desc-lc-reversed" format="2">
  <advance width="1200"/>
  <anchor x="1118" y="0" name="_descender"/>
  <outline>
    <contour>
      <point x="924" y="-300" type="line"/>
      <point x="986" y="0" type="line"/>
      <point x="1198" y="0" type="line"/>
      <point x="1220" y="104" type="line"/>
      <point x="904" y="104" type="line"/>
      <point x="820" y="-300" type="line"/>
    </contour>
  </outline>
</glyph>
<glyph name="_part.cy-desc-lc-stem" format="2">
  <advance width="1200"/>
  <anchor x="1094" y="0" name="_descender"/>
  <outline>
    <contour>
      <point x="1032" y="-300" type="line"/>
      <point x="1136" y="-300" type="line"/>
      <point x="1220" y="104" type="line"/>
      <point x="1116" y="104" type="line"/>
    </contour>
  </outline>
</glyph>
<glyph name="_part.cy-descender-lc-center" format="2">
  <anchor x="-124" y="0" name="_bottom"/>
  <outline>
    <contour>
      <point x="-238" y="-300" type="line"/>
      <point x="-134" y="-300" type="line"/>
      <point x="-66" y="28" type="line"/>
      <point x="-170" y="28" type="line"/>
    </contour>
  </outline>
</glyph>
<glyph name="_part.franc" format="2">
  <advance width="1130"/>
  <outline>
    <contour>
      <point x="100" y="0" type="line"/>
      <point x="212" y="0" type="line"/>
      <point x="354" y="670" type="line"/>
      <point x="988" y="670" type="line"/>
      <point x="1010" y="774" type="line"/>
      <point x="376" y="774" type="line"/>
      <point x="486" y="1296" type="line"/>
      <point x="1180" y="1296" type="line"/>
      <point x="1202" y="1400" type="line"/>
      <point x="396" y="1400" type="line"/>
    </contour>
  </outline>
</glyph>
<glyph name="_part.kip" format="2">
  <advance width="1298"/>
  <outline>
    <contour>
      <point x="998" y="0" type="line"/>
      <point x="1130" y="0" type="line"/>
      <point x="732" y="676" type="line"/>
      <point x="1380" y="1400" type="line"/>
      <point x="1250" y="1400" type="line"/>
      <point x="602" y="682" type="line"/>
    </contour>
    <contour>
      <point x="216" y="0" type="line"/>
      <point x="328" y="0" type="line"/>
      <point x="624" y="1400" type="line"/>
      <point x="512" y="1400" type="line"/>
    </contour>
  </outline>
</glyph>
<glyph name="_part.peso" format="2">
  <advance width="1298"/>
  <outline>
    <contour>
      <point x="190" y="0" type="line"/>
      <point x="304" y="0" type="line"/>
      <point x="432" y="606" type="line"/>
      <point x="748" y="606" type="line" smooth="yes"/>
      <point x="1050" y="606"/>
      <point x="1250" y="768"/>
      <point x="1250" y="1052" type="curve" smooth="yes"/>
      <point x="1250" y="1266"/>
      <point x="1096" y="1400"/>
      <point x="878" y="1400" type="curve" smooth="yes"/>
      <point x="486" y="1400" type="line"/>
    </contour>
    <contour>
      <point x="454" y="710" type="line"/>
      <point x="578" y="1296" type="line"/>
      <point x="866" y="1296" type="line" smooth="yes"/>
      <point x="1032" y="1296"/>
      <point x="1134" y="1196"/>
      <point x="1134" y="1038" type="curve" smooth="yes"/>
      <point x="1134" y="836"/>
      <point x="1002" y="710"/>
      <point x="780" y="710" type="curve" smooth="yes"/>
    </contour>
  </outline>
</glyph>
<glyph name="ae.ss01" format="2">
  <advance width="2002"/>
  <anchor x="1136" y="960" name="top"/>
  <outline>
    <contour>
      <point x="540" y="-30" type="curve" smooth="yes"/>
      <point x="718" y="-30"/>
      <point x="834" y="44"/>
      <point x="930" y="158" type="curve"/>
      <point x="918" y="184" type="line"/>
      <point x="880" y="0" type="line"/>
      <point x="992" y="0" type="line"/>
      <point x="1034" y="202" type="line"/>
      <point x="1008" y="174" type="line"/>
      <point x="1086" y="58"/>
      <point x="1254" y="-30"/>
      <point x="1446" y="-30" type="curve" smooth="yes"/>
      <point x="1560" y="-30"/>
      <point x="1682" y="2"/>
      <point x="1784" y="66" type="curve"/>
      <point x="1736" y="166" type="line"/>
      <point x="1658" y="110"/>
      <point x="1558" y="78"/>
      <point x="1464" y="78" type="curve" smooth="yes"/>
      <point x="1214" y="78"/>
      <point x="1058" y="228"/>
      <point x="1098" y="468" type="curve"/>
      <point x="1920" y="468" type="line"/>
      <point x="1988" y="768"/>
      <point x="1828" y="990"/>
      <point x="1524" y="990" type="curve" smooth="yes"/>
      <point x="1364" y="990"/>
      <point x="1228" y="922"/>
      <point x="1122" y="788" type="curve"/>
      <point x="1136" y="766" type="line"/>
      <point x="1176" y="960" type="line"/>
      <point x="1064" y="960" type="line"/>
      <point x="1020" y="754" type="line"/>
      <point x="1046" y="782" type="line"/>
      <point x="976" y="888"/>
      <point x="846" y="990"/>
      <point x="642" y="990" type="curve" smooth="yes"/>
      <point x="332" y="990"/>
      <point x="80" y="724"/>
      <point x="80" y="418" type="curve" smooth="yes"/>
      <point x="80" y="170"/>
      <point x="256" y="-30"/>
    </contour>
    <contour>
      <point x="556" y="78" type="curve" smooth="yes"/>
      <point x="340" y="78"/>
      <point x="202" y="210"/>
      <point x="202" y="418" type="curve" smooth="yes"/>
      <point x="202" y="680"/>
      <point x="382" y="882"/>
      <point x="636" y="882" type="curve" smooth="yes"/>
      <point x="852" y="882"/>
      <point x="984" y="742"/>
      <point x="984" y="524" type="curve" smooth="yes"/>
      <point x="984" y="268"/>
      <point x="808" y="78"/>
    </contour>
    <contour>
      <point x="1120" y="572" type="line"/>
      <point x="1152" y="770"/>
      <point x="1312" y="882"/>
      <point x="1506" y="882" type="curve" smooth="yes"/>
      <point x="1710" y="882"/>
      <point x="1840" y="786"/>
      <point x="1816" y="572" type="curve"/>
    </contour>
  </outline>
</glyph>
<glyph name="brevecomb.narrow" format="2">
  <anchor x="-636" y="960" name="_top"/>
  <anchor x="-540" y="1404" name="top"/>
  <outline>
    <contour>
      <point x="-568" y="1160" type="curve" smooth="yes"/>
      <point x="-404" y="1160"/>
      <point x="-266" y="1304"/>
      <point x="-244" y="1504" type="curve"/>
      <point x="-344" y="1504" type="line"/>
      <point x="-358" y="1362"/>
      <point x="-438" y="1256"/>
      <point x="-554" y="1256" type="curve" smooth="yes"/>
      <point x="-670" y="1256"/>
      <point x="-734" y="1346"/>
      <point x="-712" y="1504" type="curve"/>
      <point x="-814" y="1504" type="line"/>
      <point x="-838" y="1294"/>
      <point x="-740" y="1160"/>
    </contour>
  </outline>
</glyph>
<glyph name="breveinvertedcomb.case" format="2">
  <anchor x="-786" y="1398" name="_top"/>
  <outline>
    <contour>
      <point x="-1072" y="1592" type="curve"/>
      <point x="-972" y="1592" type="line"/>
      <point x="-962" y="1730"/>
      <point x="-856" y="1820"/>
      <point x="-718" y="1820" type="curve" smooth="yes"/>
      <point x="-560" y="1820"/>
      <point x="-480" y="1724"/>
      <point x="-502" y="1592" type="curve"/>
      <point x="-398" y="1592" type="line"/>
      <point x="-372" y="1770"/>
      <point x="-502" y="1914"/>
      <point x="-708" y="1914" type="curve" smooth="yes"/>
      <point x="-906" y="1914"/>
      <point x="-1062" y="1780"/>
    </contour>
  </outline>
</glyph>
<glyph name="caroncomb.alt" format="2">
  <anchor x="-166" y="1440" name="_caron"/>
  <outline>
    <contour>
      <point x="-190" y="1012" type="line"/>
      <point x="-112" y="1012" type="line"/>
      <point x="28" y="1440" type="line"/>
      <point x="-98" y="1440" type="line"/>
    </contour>
  </outline>
</glyph>
<glyph name="circumflexcomb.case" format="2">
  <anchor x="-784" y="1398" name="_top"/>
  <anchor x="-688" y="1848" name="top"/>
  <anchor x="-414" y="1646" name="top_right"/>
  <outline>
    <contour>
      <point x="-1068" y="1592" type="line"/>
      <point x="-934" y="1592" type="line"/>
      <point x="-676" y="1828" type="line"/>
      <point x="-536" y="1592" type="line"/>
      <point x="-424" y="1592" type="line"/>
      <point x="-604" y="1904" type="line"/>
      <point x="-734" y="1904" type="line"/>
    </contour>
  </outline>
</glyph>
<glyph name="el-cy.loclBGR" format="2">
  <advance width="962"/>
  <outline>
    <contour>
      <point x="646" y="960" type="line"/>
      <point x="522" y="960" type="line"/>
      <point x="-60" y="0" type="line"/>
      <point x="72" y="0" type="line"/>
      <point x="584" y="872" type="line"/>
      <point x="550" y="878" type="line"/>
      <point x="692" y="0" type="line"/>
      <point x="818" y="0" type="line"/>
    </contour>
  </outline>
</glyph>
<glyph name="four.numr" format="2">
  <advance width="846"/>
  <outline>
    <contour>
      <point x="530" y="490" type="line"/>
      <point x="626" y="490" type="line"/>
      <point x="668" y="686" type="line"/>
      <point x="822" y="686" type="line"/>
      <point x="842" y="778" type="line"/>
      <point x="686" y="778" type="line"/>
      <point x="732" y="994" type="line"/>
      <point x="636" y="994" type="line"/>
      <point x="590" y="778" type="line"/>
      <point x="228" y="778" type="line"/>
      <point x="718" y="1400" type="line"/>
      <point x="602" y="1400" type="line"/>
      <point x="108" y="770" type="line"/>
      <point x="92" y="686" type="line"/>
      <point x="572" y="686" type="line"/>
    </contour>
  </outline>
</glyph>
<glyph name="ge-cy.loclBGR" format="2">
  <advance width="974"/>
  <anchor x="390" y="0" name="bottom"/>
  <anchor x="622" y="960" name="top"/>
  <outline>
    <contour>
      <point x="372" y="-30" type="curve" smooth="yes"/>
      <point x="518" y="-30"/>
      <point x="684" y="26"/>
      <point x="792" y="112" type="curve"/>
      <point x="742" y="210" type="line"/>
      <point x="650" y="132"/>
      <point x="520" y="78"/>
      <point x="392" y="78" type="curve" smooth="yes"/>
      <point x="256" y="78"/>
      <point x="180" y="122"/>
      <point x="180" y="218" type="curve" smooth="yes"/>
      <point x="180" y="334"/>
      <point x="328" y="392"/>
      <point x="502" y="444" type="curve" smooth="yes"/>
      <point x="730" y="512"/>
      <point x="930" y="588"/>
      <point x="930" y="766" type="curve" smooth="yes"/>
      <point x="930" y="916"/>
      <point x="798" y="1000"/>
      <point x="610" y="1000" type="curve" smooth="yes"/>
      <point x="482" y="1000"/>
      <point x="356" y="954"/>
      <point x="246" y="866" type="curve"/>
      <point x="288" y="762" type="line"/>
      <point x="370" y="840"/>
      <point x="490" y="892"/>
      <point x="602" y="892" type="curve" smooth="yes"/>
      <point x="728" y="892"/>
      <point x="810" y="850"/>
      <point x="810" y="756" type="curve" smooth="yes"/>
      <point x="810" y="646"/>
      <point x="670" y="588"/>
      <point x="490" y="536" type="curve" smooth="yes"/>
      <point x="246" y="464"/>
      <point x="60" y="388"/>
      <point x="60" y="198" type="curve" smooth="yes"/>
      <point x="60" y="48"/>
      <point x="198" y="-30"/>
    </contour>
  </outline>
</glyph>
<glyph name="hardsign-cy.loclBGR" format="2">
  <advance width="1280"/>
  <outline>
    <contour>
      <point x="735" y="-20" type="curve" smooth="yes"/>
      <point x="983" y="-20"/>
      <point x="1183" y="146"/>
      <point x="1183" y="372" type="curve" smooth="yes"/>
      <point x="1183" y="556"/>
      <point x="1033" y="704"/>
      <point x="801" y="704" type="curve" smooth="yes"/>
      <point x="679" y="704"/>
      <point x="557" y="656"/>
      <point x="491" y="580" type="curve"/>
      <point x="495" y="554" type="line"/>
      <point x="581" y="960" type="line"/>
      <point x="469" y="960" type="line"/>
      <point x="347" y="384" type="line" smooth="yes"/>
      <point x="297" y="148"/>
      <point x="473" y="-20"/>
    </contour>
    <contour>
      <point x="741" y="82" type="curve" smooth="yes"/>
      <point x="573" y="82"/>
      <point x="455" y="172"/>
      <point x="455" y="312" type="curve" smooth="yes"/>
      <point x="455" y="472"/>
      <point x="583" y="600"/>
      <point x="773" y="600" type="curve" smooth="yes"/>
      <point x="945" y="600"/>
      <point x="1063" y="510"/>
      <point x="1063" y="368" type="curve" smooth="yes"/>
      <point x="1063" y="212"/>
      <point x="933" y="82"/>
    </contour>
    <contour>
      <point x="447" y="856" type="line"/>
      <point x="581" y="960" type="line"/>
      <point x="149" y="960" type="line"/>
      <point x="127" y="856" type="line"/>
    </contour>
  </outline>
</glyph>
<glyph name="horncomb.alt_case" format="2">
  <anchor x="-154" y="1400" name="_horn"/>
  <outline>
    <contour>
      <point x="-76" y="1186" type="curve" smooth="yes"/>
      <point x="58" y="1186"/>
      <point x="142" y="1290"/>
      <point x="142" y="1404" type="curve" smooth="yes"/>
      <point x="142" y="1458"/>
      <point x="126" y="1520"/>
      <point x="92" y="1574" type="curve"/>
      <point x="-6" y="1538" type="line"/>
      <point x="24" y="1482"/>
      <point x="34" y="1434"/>
      <point x="34" y="1398" type="curve" smooth="yes"/>
      <point x="34" y="1324"/>
      <point x="-4" y="1270"/>
      <point x="-86" y="1270" type="curve" smooth="yes"/>
      <point x="-134" y="1270"/>
      <point x="-212" y="1304"/>
      <point x="-276" y="1342" type="curve"/>
      <point x="-290" y="1270" type="line"/>
      <point x="-224" y="1228"/>
      <point x="-146" y="1186"/>
    </contour>
  </outline>
</glyph>
<glyph name="horncomb.case" format="2">
  <anchor x="-288" y="1400" name="_horn"/>
  <outline>
    <contour>
      <point x="-196" y="1220" type="curve" smooth="yes"/>
      <point x="-50" y="1213"/>
      <point x="32" y="1308"/>
      <point x="32" y="1416" type="curve" smooth="yes"/>
      <point x="32" y="1468"/>
      <point x="14" y="1522"/>
      <point x="-26" y="1574" type="curve"/>
      <point x="-126" y="1536" type="line"/>
      <point x="-88" y="1482"/>
      <point x="-76" y="1436"/>
      <point x="-76" y="1404" type="curve" smooth="yes"/>
      <point x="-76" y="1342"/>
      <point x="-116" y="1298"/>
      <point x="-202" y="1302" type="curve" smooth="yes"/>
      <point x="-302" y="1307"/>
      <point x="-484" y="1430"/>
      <point x="-730" y="1430" type="curve"/>
      <point x="-744" y="1364" type="line"/>
      <point x="-482" y="1352"/>
      <point x="-328" y="1226"/>
    </contour>
  </outline>
</glyph>
<glyph name="jdotless.calt" format="2">
  <advance width="452"/>
  <anchor x="328" y="960" name="top"/>
  <outline>
    <contour>
      <point x="-94" y="-450" type="curve" smooth="yes"/>
      <point x="23" y="-450"/>
      <point x="99" y="-381"/>
      <point x="130" y="-234" type="curve" smooth="yes"/>
      <point x="384" y="960" type="line"/>
      <point x="272" y="960" type="line"/>
      <point x="22" y="-214" type="line" smooth="yes"/>
      <point x="4" y="-298"/>
      <point x="-27" y="-342"/>
      <point x="-97" y="-342" type="curve" smooth="yes"/>
      <point x="-123" y="-342"/>
      <point x="-148" y="-336"/>
      <point x="-170" y="-325" type="curve"/>
      <point x="-223" y="-427" type="line"/>
      <point x="-191" y="-440"/>
      <point x="-151" y="-450"/>
    </contour>
  </outline>
</glyph>
<glyph name="macroncomb.narrow" format="2">
  <anchor x="-480" y="960" name="_top"/>
  <outline>
    <contour>
      <point x="-676" y="1230" type="line"/>
      <point x="-174" y="1230" type="line"/>
      <point x="-150" y="1334" type="line"/>
      <point x="-650" y="1334" type="line"/>
    </contour>
  </outline>
</glyph>
<glyph name="nine.ss02" format="2">
  <advance width="1217"/>
  <outline>
    <contour>
      <point x="236" y="0" type="line"/>
      <point x="382" y="0" type="line"/>
      <point x="906" y="544" type="line" smooth="yes"/>
      <point x="1060" y="700"/>
      <point x="1174" y="832"/>
      <point x="1174" y="1020" type="curve" smooth="yes"/>
      <point x="1174" y="1242"/>
      <point x="982" y="1430"/>
      <point x="712" y="1430" type="curve" smooth="yes"/>
      <point x="420" y="1430"/>
      <point x="174" y="1210"/>
      <point x="174" y="932" type="curve" smooth="yes"/>
      <point x="174" y="710"/>
      <point x="360" y="538"/>
      <point x="624" y="538" type="curve" smooth="yes"/>
      <point x="696" y="538"/>
      <point x="770" y="552"/>
      <point x="826" y="584" type="curve"/>
      <point x="834" y="606" type="line"/>
    </contour>
    <contour>
      <point x="642" y="640" type="curve" smooth="yes"/>
      <point x="440" y="640"/>
      <point x="300" y="772"/>
      <point x="300" y="948" type="curve" smooth="yes"/>
      <point x="300" y="1154"/>
      <point x="474" y="1318"/>
      <point x="696" y="1318" type="curve" smooth="yes"/>
      <point x="906" y="1318"/>
      <point x="1048" y="1190"/>
      <point x="1048" y="1012" type="curve" smooth="yes"/>
      <point x="1048" y="796"/>
      <point x="864" y="640"/>
    </contour>
  </outline>
</glyph>
<glyph name="one.dnom" format="2">
  <advance width="632"/>
  <outline>
    <contour>
      <point x="250" y="0" type="line"/>
      <point x="350" y="0" type="line"/>
      <point x="548" y="930" type="line"/>
      <point x="538" y="930" type="line"/>
      <point x="114" y="788" type="line"/>
      <point x="140" y="710" type="line"/>
      <point x="422" y="800" type="line"/>
    </contour>
  </outline>
</glyph>
<glyph name="one.numr" format="2">
  <advance width="632"/>
  <outline>
    <contour>
      <point x="354" y="490" type="line"/>
      <point x="454" y="490" type="line"/>
      <point x="652" y="1420" type="line"/>
      <point x="642" y="1420" type="line"/>
      <point x="218" y="1278" type="line"/>
      <point x="244" y="1200" type="line"/>
      <point x="526" y="1290" type="line"/>
    </contour>
  </outline>
</glyph>
<glyph name="sha-cy.loclBGR" format="2">
  <advance width="1800"/>
  <guideline x="499" y="480" angle="0"/>
  <anchor x="1528" y="0" name="descender"/>
  <anchor x="998" y="960" name="top"/>
  <outline>
    <contour>
      <point x="420" y="-30" type="curve" smooth="yes"/>
      <point x="554" y="-30"/>
      <point x="688" y="32"/>
      <point x="818" y="188" type="curve"/>
      <point x="826" y="72"/>
      <point x="918" y="-30"/>
      <point x="1094" y="-30" type="curve" smooth="yes"/>
      <point x="1228" y="-30"/>
      <point x="1352" y="40"/>
      <point x="1448" y="158" type="curve"/>
      <point x="1416" y="0" type="line"/>
      <point x="1528" y="0" type="line"/>
      <point x="1732" y="960" type="line"/>
      <point x="1620" y="960" type="line"/>
      <point x="1498" y="390" type="line" smooth="yes"/>
      <point x="1456" y="192"/>
      <point x="1302" y="78"/>
      <point x="1138" y="78" type="curve" smooth="yes"/>
      <point x="970" y="78"/>
      <point x="886" y="182"/>
      <point x="924" y="348" type="curve" smooth="yes"/>
      <point x="1054" y="960" type="line"/>
      <point x="942" y="960" type="line"/>
      <point x="820" y="390" type="line" smooth="yes"/>
      <point x="778" y="192"/>
      <point x="624" y="78"/>
      <point x="460" y="78" type="curve" smooth="yes"/>
      <point x="292" y="78"/>
      <point x="208" y="182"/>
      <point x="246" y="348" type="curve" smooth="yes"/>
      <point x="376" y="960" type="line"/>
      <point x="264" y="960" type="line"/>
      <point x="126" y="314" type="line" smooth="yes"/>
      <point x="88" y="116"/>
      <point x="212" y="-30"/>
    </contour>
  </outline>
</glyph>
<glyph name="softsign-cy.loclBGR" format="2">
  <advance width="1069"/>
  <guideline x="-77" y="-82" angle="0"/>
  <outline>
    <contour>
      <point x="524" y="-20" type="curve" smooth="yes"/>
      <point x="772" y="-20"/>
      <point x="972" y="146"/>
      <point x="972" y="372" type="curve" smooth="yes"/>
      <point x="972" y="556"/>
      <point x="822" y="704"/>
      <point x="590" y="704" type="curve" smooth="yes"/>
      <point x="468" y="704"/>
      <point x="346" y="656"/>
      <point x="280" y="580" type="curve"/>
      <point x="284" y="554" type="line"/>
      <point x="370" y="960" type="line"/>
      <point x="258" y="960" type="line"/>
      <point x="136" y="384" type="line" smooth="yes"/>
      <point x="86" y="148"/>
      <point x="262" y="-20"/>
    </contour>
    <contour>
      <point x="530" y="82" type="curve" smooth="yes"/>
      <point x="362" y="82"/>
      <point x="244" y="172"/>
      <point x="244" y="312" type="curve" smooth="yes"/>
      <point x="244" y="472"/>
      <point x="372" y="600"/>
      <point x="562" y="600" type="curve" smooth="yes"/>
      <point x="734" y="600"/>
      <point x="852" y="510"/>
      <point x="852" y="368" type="curve" smooth="yes"/>
      <point x="852" y="212"/>
      <point x="722" y="82"/>
    </contour>
  </outline>
</glyph>
<glyph name="three.dnom" format="2">
  <advance width="816"/>
  <outline>
    <contour>
      <point x="302" y="-20" type="curve" smooth="yes"/>
      <point x="502" y="-20"/>
      <point x="662" y="110"/>
      <point x="662" y="294" type="curve" smooth="yes"/>
      <point x="662" y="446"/>
      <point x="526" y="524"/>
      <point x="362" y="532" type="curve"/>
      <point x="736" y="826" type="line"/>
      <point x="752" y="910" type="line"/>
      <point x="176" y="910" type="line"/>
      <point x="156" y="818" type="line"/>
      <point x="594" y="818" type="line"/>
      <point x="212" y="516" type="line"/>
      <point x="228" y="452" type="line"/>
      <point x="252" y="456"/>
      <point x="282" y="458"/>
      <point x="308" y="458" type="curve" smooth="yes"/>
      <point x="460" y="458"/>
      <point x="554" y="394"/>
      <point x="554" y="290" type="curve" smooth="yes"/>
      <point x="554" y="160"/>
      <point x="450" y="76"/>
      <point x="306" y="76" type="curve" smooth="yes"/>
      <point x="208" y="76"/>
      <point x="112" y="114"/>
      <point x="56" y="166" type="curve"/>
      <point x="2" y="82" type="line"/>
      <point x="59" y="24"/>
      <point x="186" y="-20"/>
    </contour>
  </outline>
</glyph>
<glyph name="three.numr" format="2">
  <advance width="816"/>
  <outline>
    <contour>
      <point x="406" y="470" type="curve" smooth="yes"/>
      <point x="606" y="470"/>
      <point x="766" y="600"/>
      <point x="766" y="784" type="curve" smooth="yes"/>
      <point x="766" y="936"/>
      <point x="630" y="1014"/>
      <point x="466" y="1022" type="curve"/>
      <point x="840" y="1316" type="line"/>
      <point x="856" y="1400" type="line"/>
      <point x="280" y="1400" type="line"/>
      <point x="260" y="1308" type="line"/>
      <point x="698" y="1308" type="line"/>
      <point x="316" y="1006" type="line"/>
      <point x="332" y="942" type="line"/>
      <point x="356" y="946"/>
      <point x="386" y="948"/>
      <point x="412" y="948" type="curve" smooth="yes"/>
      <point x="564" y="948"/>
      <point x="658" y="884"/>
      <point x="658" y="780" type="curve" smooth="yes"/>
      <point x="658" y="650"/>
      <point x="554" y="566"/>
      <point x="410" y="566" type="curve" smooth="yes"/>
      <point x="312" y="566"/>
      <point x="216" y="604"/>
      <point x="160" y="656" type="curve"/>
      <point x="106" y="572" type="line"/>
      <point x="163" y="514"/>
      <point x="290" y="470"/>
    </contour>
  </outline>
</glyph>
<glyph name="two.dnom" format="2">
  <advance width="828"/>
  <outline>
    <contour>
      <point x="8" y="0" type="line"/>
      <point x="622" y="0" type="line"/>
      <point x="640" y="92" type="line"/>
      <point x="168" y="92" type="line"/>
      <point x="386" y="250" type="line" smooth="yes"/>
      <point x="588" y="396"/>
      <point x="734" y="524"/>
      <point x="734" y="692" type="curve" smooth="yes"/>
      <point x="734" y="838"/>
      <point x="616" y="930"/>
      <point x="434" y="930" type="curve" smooth="yes"/>
      <point x="344" y="930"/>
      <point x="257" y="906"/>
      <point x="187" y="857" type="curve"/>
      <point x="214" y="778" type="line"/>
      <point x="268" y="818"/>
      <point x="344" y="836"/>
      <point x="412" y="836" type="curve" smooth="yes"/>
      <point x="548" y="836"/>
      <point x="630" y="778"/>
      <point x="630" y="680" type="curve" smooth="yes"/>
      <point x="630" y="534"/>
      <point x="468" y="410"/>
      <point x="282" y="272" type="curve" smooth="yes"/>
      <point x="26" y="82" type="line"/>
    </contour>
  </outline>
</glyph>
<glyph name="two.numr" format="2">
  <advance width="828"/>
  <outline>
    <contour>
      <point x="112" y="490" type="line"/>
      <point x="726" y="490" type="line"/>
      <point x="744" y="582" type="line"/>
      <point x="272" y="582" type="line"/>
      <point x="490" y="740" type="line" smooth="yes"/>
      <point x="692" y="886"/>
      <point x="838" y="1014"/>
      <point x="838" y="1182" type="curve" smooth="yes"/>
      <point x="838" y="1328"/>
      <point x="720" y="1420"/>
      <point x="538" y="1420" type="curve" smooth="yes"/>
      <point x="448" y="1420"/>
      <point x="361" y="1396"/>
      <point x="291" y="1347" type="curve"/>
      <point x="318" y="1268" type="line"/>
      <point x="372" y="1308"/>
      <point x="448" y="1326"/>
      <point x="516" y="1326" type="curve" smooth="yes"/>
      <point x="652" y="1326"/>
      <point x="734" y="1268"/>
      <point x="734" y="1170" type="curve" smooth="yes"/>
      <point x="734" y="1024"/>
      <point x="572" y="900"/>
      <point x="386" y="762" type="curve" smooth="yes"/>
      <point x="130" y="572" type="line"/>
    </contour>
  </outline>
</glyph>
<glyph name="ze-cy.loclBGR" format="2">
  <advance width="1020"/>
  <anchor x="258" y="-420" name="bottom"/>
  <anchor x="538" y="960" name="top"/>
  <outline>
    <contour>
      <point x="296" y="-448" type="curve" smooth="yes"/>
      <point x="580" y="-448"/>
      <point x="782" y="-280"/>
      <point x="782" y="-46" type="curve" smooth="yes"/>
      <point x="782" y="108"/>
      <point x="696" y="240"/>
      <point x="554" y="290" type="curve"/>
      <point x="704" y="316"/>
      <point x="890" y="462"/>
      <point x="890" y="664" type="curve" smooth="yes"/>
      <point x="890" y="854"/>
      <point x="728" y="988"/>
      <point x="510" y="988" type="curve" smooth="yes"/>
      <point x="356" y="988"/>
      <point x="222" y="944"/>
      <point x="114" y="862" type="curve"/>
      <point x="158" y="772" type="line"/>
      <point x="250" y="842"/>
      <point x="362" y="880"/>
      <point x="492" y="880" type="curve" smooth="yes"/>
      <point x="654" y="880"/>
      <point x="770" y="794"/>
      <point x="770" y="638" type="curve" smooth="yes"/>
      <point x="770" y="456"/>
      <point x="610" y="346"/>
      <point x="384" y="346" type="curve" smooth="yes"/>
      <point x="186" y="346" type="line"/>
      <point x="164" y="242" type="line"/>
      <point x="350" y="242" type="line" smooth="yes"/>
      <point x="534" y="242"/>
      <point x="660" y="124"/>
      <point x="660" y="-46" type="curve" smooth="yes"/>
      <point x="660" y="-228"/>
      <point x="530" y="-340"/>
      <point x="316" y="-340" type="curve" smooth="yes"/>
      <point x="168" y="-340"/>
      <point x="28" y="-280"/>
      <point x="-56" y="-180" type="curve"/>
      <point x="-136" y="-270" type="line"/>
      <point x="-38" y="-374"/>
      <point x="140" y="-448"/>
    </contour>
  </outline>
</glyph>
